<?xml version="1.0" encoding="utf-8" standalone="no"?>
<!DOCTYPE svg PUBLIC "-//W3C//DTD SVG 1.1//EN"
  "http://www.w3.org/Graphics/SVG/1.1/DTD/svg11.dtd">
<svg xmlns:xlink="http://www.w3.org/1999/xlink" width="517.6pt" height="631.082625pt" viewBox="0 0 517.6 631.082625" xmlns="http://www.w3.org/2000/svg" version="1.1">
 <metadata>
  <rdf:RDF xmlns:dc="http://purl.org/dc/elements/1.1/" xmlns:cc="http://creativecommons.org/ns#" xmlns:rdf="http://www.w3.org/1999/02/22-rdf-syntax-ns#">
   <cc:Work>
    <dc:type rdf:resource="http://purl.org/dc/dcmitype/StillImage"/>
    <dc:date>2025-11-22T15:31:47.582549</dc:date>
    <dc:format>image/svg+xml</dc:format>
    <dc:creator>
     <cc:Agent>
      <dc:title>Matplotlib v3.9.2, https://matplotlib.org/</dc:title>
     </cc:Agent>
    </dc:creator>
   </cc:Work>
  </rdf:RDF>
 </metadata>
 <defs>
  <style type="text/css">*{stroke-linejoin: round; stroke-linecap: butt}</style>
 </defs>
 <g id="figure_1">
  <g id="patch_1">
   <path d="M 0 631.082625 
L 517.6 631.082625 
L 517.6 0 
L 0 0 
z
" style="fill: #ffffff"/>
  </g>
  <g id="axes_1">
   <g id="patch_2">
    <path d="M 160.13 165.185125 
L 292.23 165.185125 
L 292.23 25.225125 
L 160.13 25.225125 
z
" style="fill: #ffffff"/>
   </g>
   <g id="matplotlib.axis_1">
    <g id="xtick_1">
     <g id="line2d_1">
      <defs>
       <path id="m2de46ddd2e" d="M 0 0 
L 0 3.5 
" style="stroke: #000000; stroke-width: 0.8"/>
      </defs>
      <g>
       <use xlink:href="#m2de46ddd2e" x="160.13" y="165.185125" style="stroke: #000000; stroke-width: 0.8"/>
      </g>
     </g>
     <g id="text_1">
      <!-- −1.0 -->
      <g transform="translate(146.311563 182.206062) scale(0.14 -0.14)">
       <defs>
        <path id="ArialMT-2212" d="M 3381 1997 
L 356 1997 
L 356 2522 
L 3381 2522 
L 3381 1997 
z
" transform="scale(0.015625)"/>
        <path id="ArialMT-31" d="M 2384 0 
L 1822 0 
L 1822 3584 
Q 1619 3391 1289 3197 
Q 959 3003 697 2906 
L 697 3450 
Q 1169 3672 1522 3987 
Q 1875 4303 2022 4600 
L 2384 4600 
L 2384 0 
z
" transform="scale(0.015625)"/>
        <path id="ArialMT-2e" d="M 581 0 
L 581 641 
L 1222 641 
L 1222 0 
L 581 0 
z
" transform="scale(0.015625)"/>
        <path id="ArialMT-30" d="M 266 2259 
Q 266 3072 433 3567 
Q 600 4063 929 4331 
Q 1259 4600 1759 4600 
Q 2128 4600 2406 4451 
Q 2684 4303 2865 4023 
Q 3047 3744 3150 3342 
Q 3253 2941 3253 2259 
Q 3253 1453 3087 958 
Q 2922 463 2592 192 
Q 2263 -78 1759 -78 
Q 1097 -78 719 397 
Q 266 969 266 2259 
z
M 844 2259 
Q 844 1131 1108 757 
Q 1372 384 1759 384 
Q 2147 384 2411 759 
Q 2675 1134 2675 2259 
Q 2675 3391 2411 3762 
Q 2147 4134 1753 4134 
Q 1366 4134 1134 3806 
Q 844 3388 844 2259 
z
" transform="scale(0.015625)"/>
       </defs>
       <use xlink:href="#ArialMT-2212"/>
       <use xlink:href="#ArialMT-31" x="58.398438"/>
       <use xlink:href="#ArialMT-2e" x="114.013672"/>
       <use xlink:href="#ArialMT-30" x="141.796875"/>
      </g>
     </g>
    </g>
    <g id="xtick_2">
     <g id="line2d_2">
      <g>
       <use xlink:href="#m2de46ddd2e" x="193.155" y="165.185125" style="stroke: #000000; stroke-width: 0.8"/>
      </g>
     </g>
     <g id="text_2">
      <!-- −0.5 -->
      <g transform="translate(179.336563 182.206062) scale(0.14 -0.14)">
       <defs>
        <path id="ArialMT-35" d="M 266 1200 
L 856 1250 
Q 922 819 1161 601 
Q 1400 384 1738 384 
Q 2144 384 2425 690 
Q 2706 997 2706 1503 
Q 2706 1984 2436 2262 
Q 2166 2541 1728 2541 
Q 1456 2541 1237 2417 
Q 1019 2294 894 2097 
L 366 2166 
L 809 4519 
L 3088 4519 
L 3088 3981 
L 1259 3981 
L 1013 2750 
Q 1425 3038 1878 3038 
Q 2478 3038 2890 2622 
Q 3303 2206 3303 1553 
Q 3303 931 2941 478 
Q 2500 -78 1738 -78 
Q 1113 -78 717 272 
Q 322 622 266 1200 
z
" transform="scale(0.015625)"/>
       </defs>
       <use xlink:href="#ArialMT-2212"/>
       <use xlink:href="#ArialMT-30" x="58.398438"/>
       <use xlink:href="#ArialMT-2e" x="114.013672"/>
       <use xlink:href="#ArialMT-35" x="141.796875"/>
      </g>
     </g>
    </g>
    <g id="xtick_3">
     <g id="line2d_3">
      <g>
       <use xlink:href="#m2de46ddd2e" x="226.18" y="165.185125" style="stroke: #000000; stroke-width: 0.8"/>
      </g>
     </g>
     <g id="text_3">
      <!-- 0.0 -->
      <g transform="translate(216.45 182.206062) scale(0.14 -0.14)">
       <use xlink:href="#ArialMT-30"/>
       <use xlink:href="#ArialMT-2e" x="55.615234"/>
       <use xlink:href="#ArialMT-30" x="83.398438"/>
      </g>
     </g>
    </g>
    <g id="xtick_4">
     <g id="line2d_4">
      <g>
       <use xlink:href="#m2de46ddd2e" x="259.205" y="165.185125" style="stroke: #000000; stroke-width: 0.8"/>
      </g>
     </g>
     <g id="text_4">
      <!-- 0.5 -->
      <g transform="translate(249.475 182.206062) scale(0.14 -0.14)">
       <use xlink:href="#ArialMT-30"/>
       <use xlink:href="#ArialMT-2e" x="55.615234"/>
       <use xlink:href="#ArialMT-35" x="83.398438"/>
      </g>
     </g>
    </g>
    <g id="xtick_5">
     <g id="line2d_5">
      <g>
       <use xlink:href="#m2de46ddd2e" x="292.23" y="165.185125" style="stroke: #000000; stroke-width: 0.8"/>
      </g>
     </g>
     <g id="text_5">
      <!-- 1.0 -->
      <g transform="translate(282.5 182.206062) scale(0.14 -0.14)">
       <use xlink:href="#ArialMT-31"/>
       <use xlink:href="#ArialMT-2e" x="55.615234"/>
       <use xlink:href="#ArialMT-30" x="83.398438"/>
      </g>
     </g>
    </g>
    <g id="text_6">
     <!-- Speed in preferred direction -->
     <g transform="translate(139.801094 199.180125) scale(0.14 -0.14)">
      <defs>
       <path id="ArialMT-53" d="M 288 1472 
L 859 1522 
Q 900 1178 1048 958 
Q 1197 738 1509 602 
Q 1822 466 2213 466 
Q 2559 466 2825 569 
Q 3091 672 3220 851 
Q 3350 1031 3350 1244 
Q 3350 1459 3225 1620 
Q 3100 1781 2813 1891 
Q 2628 1963 1997 2114 
Q 1366 2266 1113 2400 
Q 784 2572 623 2826 
Q 463 3081 463 3397 
Q 463 3744 659 4045 
Q 856 4347 1234 4503 
Q 1613 4659 2075 4659 
Q 2584 4659 2973 4495 
Q 3363 4331 3572 4012 
Q 3781 3694 3797 3291 
L 3216 3247 
Q 3169 3681 2898 3903 
Q 2628 4125 2100 4125 
Q 1550 4125 1298 3923 
Q 1047 3722 1047 3438 
Q 1047 3191 1225 3031 
Q 1400 2872 2139 2705 
Q 2878 2538 3153 2413 
Q 3553 2228 3743 1945 
Q 3934 1663 3934 1294 
Q 3934 928 3725 604 
Q 3516 281 3123 101 
Q 2731 -78 2241 -78 
Q 1619 -78 1198 103 
Q 778 284 539 648 
Q 300 1013 288 1472 
z
" transform="scale(0.015625)"/>
       <path id="ArialMT-70" d="M 422 -1272 
L 422 3319 
L 934 3319 
L 934 2888 
Q 1116 3141 1344 3267 
Q 1572 3394 1897 3394 
Q 2322 3394 2647 3175 
Q 2972 2956 3137 2557 
Q 3303 2159 3303 1684 
Q 3303 1175 3120 767 
Q 2938 359 2589 142 
Q 2241 -75 1856 -75 
Q 1575 -75 1351 44 
Q 1128 163 984 344 
L 984 -1272 
L 422 -1272 
z
M 931 1641 
Q 931 1000 1190 694 
Q 1450 388 1819 388 
Q 2194 388 2461 705 
Q 2728 1022 2728 1688 
Q 2728 2322 2467 2637 
Q 2206 2953 1844 2953 
Q 1484 2953 1207 2617 
Q 931 2281 931 1641 
z
" transform="scale(0.015625)"/>
       <path id="ArialMT-65" d="M 2694 1069 
L 3275 997 
Q 3138 488 2766 206 
Q 2394 -75 1816 -75 
Q 1088 -75 661 373 
Q 234 822 234 1631 
Q 234 2469 665 2931 
Q 1097 3394 1784 3394 
Q 2450 3394 2872 2941 
Q 3294 2488 3294 1666 
Q 3294 1616 3291 1516 
L 816 1516 
Q 847 969 1125 678 
Q 1403 388 1819 388 
Q 2128 388 2347 550 
Q 2566 713 2694 1069 
z
M 847 1978 
L 2700 1978 
Q 2663 2397 2488 2606 
Q 2219 2931 1791 2931 
Q 1403 2931 1139 2672 
Q 875 2413 847 1978 
z
" transform="scale(0.015625)"/>
       <path id="ArialMT-64" d="M 2575 0 
L 2575 419 
Q 2259 -75 1647 -75 
Q 1250 -75 917 144 
Q 584 363 401 755 
Q 219 1147 219 1656 
Q 219 2153 384 2558 
Q 550 2963 881 3178 
Q 1213 3394 1622 3394 
Q 1922 3394 2156 3267 
Q 2391 3141 2538 2938 
L 2538 4581 
L 3097 4581 
L 3097 0 
L 2575 0 
z
M 797 1656 
Q 797 1019 1065 703 
Q 1334 388 1700 388 
Q 2069 388 2326 689 
Q 2584 991 2584 1609 
Q 2584 2291 2321 2609 
Q 2059 2928 1675 2928 
Q 1300 2928 1048 2622 
Q 797 2316 797 1656 
z
" transform="scale(0.015625)"/>
       <path id="ArialMT-20" transform="scale(0.015625)"/>
       <path id="ArialMT-69" d="M 425 3934 
L 425 4581 
L 988 4581 
L 988 3934 
L 425 3934 
z
M 425 0 
L 425 3319 
L 988 3319 
L 988 0 
L 425 0 
z
" transform="scale(0.015625)"/>
       <path id="ArialMT-6e" d="M 422 0 
L 422 3319 
L 928 3319 
L 928 2847 
Q 1294 3394 1984 3394 
Q 2284 3394 2536 3286 
Q 2788 3178 2913 3003 
Q 3038 2828 3088 2588 
Q 3119 2431 3119 2041 
L 3119 0 
L 2556 0 
L 2556 2019 
Q 2556 2363 2490 2533 
Q 2425 2703 2258 2804 
Q 2091 2906 1866 2906 
Q 1506 2906 1245 2678 
Q 984 2450 984 1813 
L 984 0 
L 422 0 
z
" transform="scale(0.015625)"/>
       <path id="ArialMT-72" d="M 416 0 
L 416 3319 
L 922 3319 
L 922 2816 
Q 1116 3169 1280 3281 
Q 1444 3394 1641 3394 
Q 1925 3394 2219 3213 
L 2025 2691 
Q 1819 2813 1613 2813 
Q 1428 2813 1281 2702 
Q 1134 2591 1072 2394 
Q 978 2094 978 1738 
L 978 0 
L 416 0 
z
" transform="scale(0.015625)"/>
       <path id="ArialMT-66" d="M 556 0 
L 556 2881 
L 59 2881 
L 59 3319 
L 556 3319 
L 556 3672 
Q 556 4006 616 4169 
Q 697 4388 901 4523 
Q 1106 4659 1475 4659 
Q 1713 4659 2000 4603 
L 1916 4113 
Q 1741 4144 1584 4144 
Q 1328 4144 1222 4034 
Q 1116 3925 1116 3625 
L 1116 3319 
L 1763 3319 
L 1763 2881 
L 1116 2881 
L 1116 0 
L 556 0 
z
" transform="scale(0.015625)"/>
       <path id="ArialMT-63" d="M 2588 1216 
L 3141 1144 
Q 3050 572 2676 248 
Q 2303 -75 1759 -75 
Q 1078 -75 664 370 
Q 250 816 250 1647 
Q 250 2184 428 2587 
Q 606 2991 970 3192 
Q 1334 3394 1763 3394 
Q 2303 3394 2647 3120 
Q 2991 2847 3088 2344 
L 2541 2259 
Q 2463 2594 2264 2762 
Q 2066 2931 1784 2931 
Q 1359 2931 1093 2626 
Q 828 2322 828 1663 
Q 828 994 1084 691 
Q 1341 388 1753 388 
Q 2084 388 2306 591 
Q 2528 794 2588 1216 
z
" transform="scale(0.015625)"/>
       <path id="ArialMT-74" d="M 1650 503 
L 1731 6 
Q 1494 -44 1306 -44 
Q 1000 -44 831 53 
Q 663 150 594 308 
Q 525 466 525 972 
L 525 2881 
L 113 2881 
L 113 3319 
L 525 3319 
L 525 4141 
L 1084 4478 
L 1084 3319 
L 1650 3319 
L 1650 2881 
L 1084 2881 
L 1084 941 
Q 1084 700 1114 631 
Q 1144 563 1211 522 
Q 1278 481 1403 481 
Q 1497 481 1650 503 
z
" transform="scale(0.015625)"/>
       <path id="ArialMT-6f" d="M 213 1659 
Q 213 2581 725 3025 
Q 1153 3394 1769 3394 
Q 2453 3394 2887 2945 
Q 3322 2497 3322 1706 
Q 3322 1066 3130 698 
Q 2938 331 2570 128 
Q 2203 -75 1769 -75 
Q 1072 -75 642 372 
Q 213 819 213 1659 
z
M 791 1659 
Q 791 1022 1069 705 
Q 1347 388 1769 388 
Q 2188 388 2466 706 
Q 2744 1025 2744 1678 
Q 2744 2294 2464 2611 
Q 2184 2928 1769 2928 
Q 1347 2928 1069 2612 
Q 791 2297 791 1659 
z
" transform="scale(0.015625)"/>
      </defs>
      <use xlink:href="#ArialMT-53"/>
      <use xlink:href="#ArialMT-70" x="66.699219"/>
      <use xlink:href="#ArialMT-65" x="122.314453"/>
      <use xlink:href="#ArialMT-65" x="177.929688"/>
      <use xlink:href="#ArialMT-64" x="233.544922"/>
      <use xlink:href="#ArialMT-20" x="289.160156"/>
      <use xlink:href="#ArialMT-69" x="316.943359"/>
      <use xlink:href="#ArialMT-6e" x="339.160156"/>
      <use xlink:href="#ArialMT-20" x="394.775391"/>
      <use xlink:href="#ArialMT-70" x="422.558594"/>
      <use xlink:href="#ArialMT-72" x="478.173828"/>
      <use xlink:href="#ArialMT-65" x="511.474609"/>
      <use xlink:href="#ArialMT-66" x="567.089844"/>
      <use xlink:href="#ArialMT-65" x="594.873047"/>
      <use xlink:href="#ArialMT-72" x="650.488281"/>
      <use xlink:href="#ArialMT-72" x="683.789062"/>
      <use xlink:href="#ArialMT-65" x="717.089844"/>
      <use xlink:href="#ArialMT-64" x="772.705078"/>
      <use xlink:href="#ArialMT-20" x="828.320312"/>
      <use xlink:href="#ArialMT-64" x="856.103516"/>
      <use xlink:href="#ArialMT-69" x="911.71875"/>
      <use xlink:href="#ArialMT-72" x="933.935547"/>
      <use xlink:href="#ArialMT-65" x="967.236328"/>
      <use xlink:href="#ArialMT-63" x="1022.851562"/>
      <use xlink:href="#ArialMT-74" x="1072.851562"/>
      <use xlink:href="#ArialMT-69" x="1100.634766"/>
      <use xlink:href="#ArialMT-6f" x="1122.851562"/>
      <use xlink:href="#ArialMT-6e" x="1178.466797"/>
     </g>
    </g>
   </g>
   <g id="matplotlib.axis_2">
    <g id="ytick_1">
     <g id="line2d_6">
      <defs>
       <path id="m3be1e765d0" d="M 0 0 
L -3.5 0 
" style="stroke: #000000; stroke-width: 0.8"/>
      </defs>
      <g>
       <use xlink:href="#m3be1e765d0" x="160.13" y="158.823307" style="stroke: #000000; stroke-width: 0.8"/>
      </g>
     </g>
     <g id="text_7">
      <!-- 0.0 -->
      <g transform="translate(133.67 163.833776) scale(0.14 -0.14)">
       <use xlink:href="#ArialMT-30"/>
       <use xlink:href="#ArialMT-2e" x="55.615234"/>
       <use xlink:href="#ArialMT-30" x="83.398438"/>
      </g>
     </g>
    </g>
    <g id="ytick_2">
     <g id="line2d_7">
      <g>
       <use xlink:href="#m3be1e765d0" x="160.13" y="95.205125" style="stroke: #000000; stroke-width: 0.8"/>
      </g>
     </g>
     <g id="text_8">
      <!-- 0.5 -->
      <g transform="translate(133.67 100.215594) scale(0.14 -0.14)">
       <use xlink:href="#ArialMT-30"/>
       <use xlink:href="#ArialMT-2e" x="55.615234"/>
       <use xlink:href="#ArialMT-35" x="83.398438"/>
      </g>
     </g>
    </g>
    <g id="ytick_3">
     <g id="line2d_8">
      <g>
       <use xlink:href="#m3be1e765d0" x="160.13" y="31.586943" style="stroke: #000000; stroke-width: 0.8"/>
      </g>
     </g>
     <g id="text_9">
      <!-- 1.0 -->
      <g transform="translate(133.67 36.597412) scale(0.14 -0.14)">
       <use xlink:href="#ArialMT-31"/>
       <use xlink:href="#ArialMT-2e" x="55.615234"/>
       <use xlink:href="#ArialMT-30" x="83.398438"/>
      </g>
     </g>
    </g>
    <g id="text_10">
     <!-- Output firing rate -->
     <g transform="translate(126.723438 147.338719) rotate(-90) scale(0.14 -0.14)">
      <defs>
       <path id="ArialMT-4f" d="M 309 2231 
Q 309 3372 921 4017 
Q 1534 4663 2503 4663 
Q 3138 4663 3647 4359 
Q 4156 4056 4423 3514 
Q 4691 2972 4691 2284 
Q 4691 1588 4409 1038 
Q 4128 488 3612 205 
Q 3097 -78 2500 -78 
Q 1853 -78 1343 234 
Q 834 547 571 1087 
Q 309 1628 309 2231 
z
M 934 2222 
Q 934 1394 1379 917 
Q 1825 441 2497 441 
Q 3181 441 3623 922 
Q 4066 1403 4066 2288 
Q 4066 2847 3877 3264 
Q 3688 3681 3323 3911 
Q 2959 4141 2506 4141 
Q 1863 4141 1398 3698 
Q 934 3256 934 2222 
z
" transform="scale(0.015625)"/>
       <path id="ArialMT-75" d="M 2597 0 
L 2597 488 
Q 2209 -75 1544 -75 
Q 1250 -75 995 37 
Q 741 150 617 320 
Q 494 491 444 738 
Q 409 903 409 1263 
L 409 3319 
L 972 3319 
L 972 1478 
Q 972 1038 1006 884 
Q 1059 663 1231 536 
Q 1403 409 1656 409 
Q 1909 409 2131 539 
Q 2353 669 2445 892 
Q 2538 1116 2538 1541 
L 2538 3319 
L 3100 3319 
L 3100 0 
L 2597 0 
z
" transform="scale(0.015625)"/>
       <path id="ArialMT-67" d="M 319 -275 
L 866 -356 
Q 900 -609 1056 -725 
Q 1266 -881 1628 -881 
Q 2019 -881 2231 -725 
Q 2444 -569 2519 -288 
Q 2563 -116 2559 434 
Q 2191 0 1641 0 
Q 956 0 581 494 
Q 206 988 206 1678 
Q 206 2153 378 2554 
Q 550 2956 876 3175 
Q 1203 3394 1644 3394 
Q 2231 3394 2613 2919 
L 2613 3319 
L 3131 3319 
L 3131 450 
Q 3131 -325 2973 -648 
Q 2816 -972 2473 -1159 
Q 2131 -1347 1631 -1347 
Q 1038 -1347 672 -1080 
Q 306 -813 319 -275 
z
M 784 1719 
Q 784 1066 1043 766 
Q 1303 466 1694 466 
Q 2081 466 2343 764 
Q 2606 1063 2606 1700 
Q 2606 2309 2336 2618 
Q 2066 2928 1684 2928 
Q 1309 2928 1046 2623 
Q 784 2319 784 1719 
z
" transform="scale(0.015625)"/>
       <path id="ArialMT-61" d="M 2588 409 
Q 2275 144 1986 34 
Q 1697 -75 1366 -75 
Q 819 -75 525 192 
Q 231 459 231 875 
Q 231 1119 342 1320 
Q 453 1522 633 1644 
Q 813 1766 1038 1828 
Q 1203 1872 1538 1913 
Q 2219 1994 2541 2106 
Q 2544 2222 2544 2253 
Q 2544 2597 2384 2738 
Q 2169 2928 1744 2928 
Q 1347 2928 1158 2789 
Q 969 2650 878 2297 
L 328 2372 
Q 403 2725 575 2942 
Q 747 3159 1072 3276 
Q 1397 3394 1825 3394 
Q 2250 3394 2515 3294 
Q 2781 3194 2906 3042 
Q 3031 2891 3081 2659 
Q 3109 2516 3109 2141 
L 3109 1391 
Q 3109 606 3145 398 
Q 3181 191 3288 0 
L 2700 0 
Q 2613 175 2588 409 
z
M 2541 1666 
Q 2234 1541 1622 1453 
Q 1275 1403 1131 1340 
Q 988 1278 909 1158 
Q 831 1038 831 891 
Q 831 666 1001 516 
Q 1172 366 1500 366 
Q 1825 366 2078 508 
Q 2331 650 2450 897 
Q 2541 1088 2541 1459 
L 2541 1666 
z
" transform="scale(0.015625)"/>
      </defs>
      <use xlink:href="#ArialMT-4f"/>
      <use xlink:href="#ArialMT-75" x="77.783203"/>
      <use xlink:href="#ArialMT-74" x="133.398438"/>
      <use xlink:href="#ArialMT-70" x="161.181641"/>
      <use xlink:href="#ArialMT-75" x="216.796875"/>
      <use xlink:href="#ArialMT-74" x="272.412109"/>
      <use xlink:href="#ArialMT-20" x="300.195312"/>
      <use xlink:href="#ArialMT-66" x="327.978516"/>
      <use xlink:href="#ArialMT-69" x="355.761719"/>
      <use xlink:href="#ArialMT-72" x="377.978516"/>
      <use xlink:href="#ArialMT-69" x="411.279297"/>
      <use xlink:href="#ArialMT-6e" x="433.496094"/>
      <use xlink:href="#ArialMT-67" x="489.111328"/>
      <use xlink:href="#ArialMT-20" x="544.726562"/>
      <use xlink:href="#ArialMT-72" x="572.509766"/>
      <use xlink:href="#ArialMT-61" x="605.810547"/>
      <use xlink:href="#ArialMT-74" x="661.425781"/>
      <use xlink:href="#ArialMT-65" x="689.208984"/>
     </g>
    </g>
   </g>
   <g id="line2d_9">
    <path d="M 160.13 31.586943 
L 161.464343 32.872159 
L 162.798687 34.157375 
L 164.13303 35.442591 
L 165.467374 36.727806 
L 166.801717 38.013022 
L 168.136061 39.298238 
L 169.470404 40.583454 
L 170.804747 41.86867 
L 172.139091 43.153885 
L 173.473434 44.439101 
L 174.807778 45.724317 
L 176.142121 47.009533 
L 177.476465 48.294749 
L 178.810808 49.579964 
L 180.145152 50.86518 
L 181.479495 52.150396 
L 182.813838 53.435612 
L 184.148182 54.720827 
L 185.482525 56.006043 
L 186.816869 57.291259 
L 188.151212 58.576475 
L 189.485556 59.861691 
L 190.819899 61.146906 
L 192.154242 62.432122 
L 193.488586 63.717338 
L 194.822929 65.002554 
L 196.157273 66.28777 
L 197.491616 67.572985 
L 198.82596 68.858201 
L 200.160303 70.143417 
L 201.494646 71.428633 
L 202.82899 72.713849 
L 204.163333 73.999064 
L 205.497677 75.28428 
L 206.83202 76.569496 
L 208.166364 77.854712 
L 209.500707 79.139928 
L 210.835051 80.425143 
L 212.169394 81.710359 
L 213.503737 82.995575 
L 214.838081 84.280791 
L 216.172424 85.566007 
L 217.506768 86.851222 
L 218.841111 88.136438 
L 220.175455 89.421654 
L 221.509798 90.70687 
L 222.844141 91.992086 
L 224.178485 93.277301 
L 225.512828 94.562517 
L 226.847172 95.847733 
L 228.181515 97.132949 
L 229.515859 98.418164 
L 230.850202 99.70338 
L 232.184545 100.988596 
L 233.518889 102.273812 
L 234.853232 103.559028 
L 236.187576 104.844243 
L 237.521919 106.129459 
L 238.856263 107.414675 
L 240.190606 108.699891 
L 241.524949 109.985107 
L 242.859293 111.270322 
L 244.193636 112.555538 
L 245.52798 113.840754 
L 246.862323 115.12597 
L 248.196667 116.411186 
L 249.53101 117.696401 
L 250.865354 118.981617 
L 252.199697 120.266833 
L 253.53404 121.552049 
L 254.868384 122.837265 
L 256.202727 124.12248 
L 257.537071 125.407696 
L 258.871414 126.692912 
L 260.205758 127.978128 
L 261.540101 129.263344 
L 262.874444 130.548559 
L 264.208788 131.833775 
L 265.543131 133.118991 
L 266.877475 134.404207 
L 268.211818 135.689423 
L 269.546162 136.974638 
L 270.880505 138.259854 
L 272.214848 139.54507 
L 273.549192 140.830286 
L 274.883535 142.115501 
L 276.217879 143.400717 
L 277.552222 144.685933 
L 278.886566 145.971149 
L 280.220909 147.256365 
L 281.555253 148.54158 
L 282.889596 149.826796 
L 284.223939 151.112012 
L 285.558283 152.397228 
L 286.892626 153.682444 
L 288.22697 154.967659 
L 289.561313 156.252875 
L 290.895657 157.538091 
L 292.23 158.823307 
" clip-path="url(#p87a6b3a9ee)" style="fill: none; stroke: #8f7b5d; stroke-width: 1.5; stroke-linecap: square"/>
   </g>
   <g id="line2d_10">
    <path d="M 226.18 165.185125 
L 226.18 25.225125 
" clip-path="url(#p87a6b3a9ee)" style="fill: none; stroke-dasharray: 5.55,2.4; stroke-dashoffset: 0; stroke: #808080; stroke-width: 1.5"/>
   </g>
   <g id="patch_3">
    <path d="M 160.13 165.185125 
L 160.13 25.225125 
" style="fill: none; stroke: #000000; stroke-width: 0.8; stroke-linejoin: miter; stroke-linecap: square"/>
   </g>
   <g id="patch_4">
    <path d="M 292.23 165.185125 
L 292.23 25.225125 
" style="fill: none; stroke: #000000; stroke-width: 0.8; stroke-linejoin: miter; stroke-linecap: square"/>
   </g>
   <g id="patch_5">
    <path d="M 160.13 165.185125 
L 292.23 165.185125 
" style="fill: none; stroke: #000000; stroke-width: 0.8; stroke-linejoin: miter; stroke-linecap: square"/>
   </g>
   <g id="patch_6">
    <path d="M 160.13 25.225125 
L 292.23 25.225125 
" style="fill: none; stroke: #000000; stroke-width: 0.8; stroke-linejoin: miter; stroke-linecap: square"/>
   </g>
   <g id="text_11">
    <!-- TN1 -->
    <g transform="translate(210.311875 19.225125) scale(0.168 -0.168)">
     <defs>
      <path id="ArialMT-54" d="M 1659 0 
L 1659 4041 
L 150 4041 
L 150 4581 
L 3781 4581 
L 3781 4041 
L 2266 4041 
L 2266 0 
L 1659 0 
z
" transform="scale(0.015625)"/>
      <path id="ArialMT-4e" d="M 488 0 
L 488 4581 
L 1109 4581 
L 3516 984 
L 3516 4581 
L 4097 4581 
L 4097 0 
L 3475 0 
L 1069 3600 
L 1069 0 
L 488 0 
z
" transform="scale(0.015625)"/>
     </defs>
     <use xlink:href="#ArialMT-54"/>
     <use xlink:href="#ArialMT-4e" x="61.083984"/>
     <use xlink:href="#ArialMT-31" x="133.300781"/>
    </g>
   </g>
  </g>
  <g id="axes_2">
   <g id="patch_7">
    <path d="M 368.57 165.185125 
L 500.67 165.185125 
L 500.67 25.225125 
L 368.57 25.225125 
z
" style="fill: #ffffff"/>
   </g>
   <g id="matplotlib.axis_3">
    <g id="xtick_6">
     <g id="line2d_11">
      <g>
       <use xlink:href="#m2de46ddd2e" x="368.57" y="165.185125" style="stroke: #000000; stroke-width: 0.8"/>
      </g>
     </g>
     <g id="text_12">
      <!-- −1.0 -->
      <g transform="translate(354.751562 182.206062) scale(0.14 -0.14)">
       <use xlink:href="#ArialMT-2212"/>
       <use xlink:href="#ArialMT-31" x="58.398438"/>
       <use xlink:href="#ArialMT-2e" x="114.013672"/>
       <use xlink:href="#ArialMT-30" x="141.796875"/>
      </g>
     </g>
    </g>
    <g id="xtick_7">
     <g id="line2d_12">
      <g>
       <use xlink:href="#m2de46ddd2e" x="401.595" y="165.185125" style="stroke: #000000; stroke-width: 0.8"/>
      </g>
     </g>
     <g id="text_13">
      <!-- −0.5 -->
      <g transform="translate(387.776563 182.206062) scale(0.14 -0.14)">
       <use xlink:href="#ArialMT-2212"/>
       <use xlink:href="#ArialMT-30" x="58.398438"/>
       <use xlink:href="#ArialMT-2e" x="114.013672"/>
       <use xlink:href="#ArialMT-35" x="141.796875"/>
      </g>
     </g>
    </g>
    <g id="xtick_8">
     <g id="line2d_13">
      <g>
       <use xlink:href="#m2de46ddd2e" x="434.62" y="165.185125" style="stroke: #000000; stroke-width: 0.8"/>
      </g>
     </g>
     <g id="text_14">
      <!-- 0.0 -->
      <g transform="translate(424.89 182.206062) scale(0.14 -0.14)">
       <use xlink:href="#ArialMT-30"/>
       <use xlink:href="#ArialMT-2e" x="55.615234"/>
       <use xlink:href="#ArialMT-30" x="83.398438"/>
      </g>
     </g>
    </g>
    <g id="xtick_9">
     <g id="line2d_14">
      <g>
       <use xlink:href="#m2de46ddd2e" x="467.645" y="165.185125" style="stroke: #000000; stroke-width: 0.8"/>
      </g>
     </g>
     <g id="text_15">
      <!-- 0.5 -->
      <g transform="translate(457.915 182.206062) scale(0.14 -0.14)">
       <use xlink:href="#ArialMT-30"/>
       <use xlink:href="#ArialMT-2e" x="55.615234"/>
       <use xlink:href="#ArialMT-35" x="83.398438"/>
      </g>
     </g>
    </g>
    <g id="xtick_10">
     <g id="line2d_15">
      <g>
       <use xlink:href="#m2de46ddd2e" x="500.67" y="165.185125" style="stroke: #000000; stroke-width: 0.8"/>
      </g>
     </g>
     <g id="text_16">
      <!-- 1.0 -->
      <g transform="translate(490.94 182.206062) scale(0.14 -0.14)">
       <use xlink:href="#ArialMT-31"/>
       <use xlink:href="#ArialMT-2e" x="55.615234"/>
       <use xlink:href="#ArialMT-30" x="83.398438"/>
      </g>
     </g>
    </g>
    <g id="text_17">
     <!-- Speed in preferred direction -->
     <g transform="translate(348.241094 199.180125) scale(0.14 -0.14)">
      <use xlink:href="#ArialMT-53"/>
      <use xlink:href="#ArialMT-70" x="66.699219"/>
      <use xlink:href="#ArialMT-65" x="122.314453"/>
      <use xlink:href="#ArialMT-65" x="177.929688"/>
      <use xlink:href="#ArialMT-64" x="233.544922"/>
      <use xlink:href="#ArialMT-20" x="289.160156"/>
      <use xlink:href="#ArialMT-69" x="316.943359"/>
      <use xlink:href="#ArialMT-6e" x="339.160156"/>
      <use xlink:href="#ArialMT-20" x="394.775391"/>
      <use xlink:href="#ArialMT-70" x="422.558594"/>
      <use xlink:href="#ArialMT-72" x="478.173828"/>
      <use xlink:href="#ArialMT-65" x="511.474609"/>
      <use xlink:href="#ArialMT-66" x="567.089844"/>
      <use xlink:href="#ArialMT-65" x="594.873047"/>
      <use xlink:href="#ArialMT-72" x="650.488281"/>
      <use xlink:href="#ArialMT-72" x="683.789062"/>
      <use xlink:href="#ArialMT-65" x="717.089844"/>
      <use xlink:href="#ArialMT-64" x="772.705078"/>
      <use xlink:href="#ArialMT-20" x="828.320312"/>
      <use xlink:href="#ArialMT-64" x="856.103516"/>
      <use xlink:href="#ArialMT-69" x="911.71875"/>
      <use xlink:href="#ArialMT-72" x="933.935547"/>
      <use xlink:href="#ArialMT-65" x="967.236328"/>
      <use xlink:href="#ArialMT-63" x="1022.851562"/>
      <use xlink:href="#ArialMT-74" x="1072.851562"/>
      <use xlink:href="#ArialMT-69" x="1100.634766"/>
      <use xlink:href="#ArialMT-6f" x="1122.851562"/>
      <use xlink:href="#ArialMT-6e" x="1178.466797"/>
     </g>
    </g>
   </g>
   <g id="matplotlib.axis_4">
    <g id="ytick_4">
     <g id="line2d_16">
      <g>
       <use xlink:href="#m3be1e765d0" x="368.57" y="158.823307" style="stroke: #000000; stroke-width: 0.8"/>
      </g>
     </g>
     <g id="text_18">
      <!-- 0.0 -->
      <g transform="translate(342.11 163.833776) scale(0.14 -0.14)">
       <use xlink:href="#ArialMT-30"/>
       <use xlink:href="#ArialMT-2e" x="55.615234"/>
       <use xlink:href="#ArialMT-30" x="83.398438"/>
      </g>
     </g>
    </g>
    <g id="ytick_5">
     <g id="line2d_17">
      <g>
       <use xlink:href="#m3be1e765d0" x="368.57" y="95.205125" style="stroke: #000000; stroke-width: 0.8"/>
      </g>
     </g>
     <g id="text_19">
      <!-- 0.5 -->
      <g transform="translate(342.11 100.215594) scale(0.14 -0.14)">
       <use xlink:href="#ArialMT-30"/>
       <use xlink:href="#ArialMT-2e" x="55.615234"/>
       <use xlink:href="#ArialMT-35" x="83.398438"/>
      </g>
     </g>
    </g>
    <g id="ytick_6">
     <g id="line2d_18">
      <g>
       <use xlink:href="#m3be1e765d0" x="368.57" y="31.586943" style="stroke: #000000; stroke-width: 0.8"/>
      </g>
     </g>
     <g id="text_20">
      <!-- 1.0 -->
      <g transform="translate(342.11 36.597412) scale(0.14 -0.14)">
       <use xlink:href="#ArialMT-31"/>
       <use xlink:href="#ArialMT-2e" x="55.615234"/>
       <use xlink:href="#ArialMT-30" x="83.398438"/>
      </g>
     </g>
    </g>
    <g id="text_21">
     <!-- Output firing rate -->
     <g transform="translate(335.163437 147.338719) rotate(-90) scale(0.14 -0.14)">
      <use xlink:href="#ArialMT-4f"/>
      <use xlink:href="#ArialMT-75" x="77.783203"/>
      <use xlink:href="#ArialMT-74" x="133.398438"/>
      <use xlink:href="#ArialMT-70" x="161.181641"/>
      <use xlink:href="#ArialMT-75" x="216.796875"/>
      <use xlink:href="#ArialMT-74" x="272.412109"/>
      <use xlink:href="#ArialMT-20" x="300.195312"/>
      <use xlink:href="#ArialMT-66" x="327.978516"/>
      <use xlink:href="#ArialMT-69" x="355.761719"/>
      <use xlink:href="#ArialMT-72" x="377.978516"/>
      <use xlink:href="#ArialMT-69" x="411.279297"/>
      <use xlink:href="#ArialMT-6e" x="433.496094"/>
      <use xlink:href="#ArialMT-67" x="489.111328"/>
      <use xlink:href="#ArialMT-20" x="544.726562"/>
      <use xlink:href="#ArialMT-72" x="572.509766"/>
      <use xlink:href="#ArialMT-61" x="605.810547"/>
      <use xlink:href="#ArialMT-74" x="661.425781"/>
      <use xlink:href="#ArialMT-65" x="689.208984"/>
     </g>
    </g>
   </g>
   <g id="line2d_19">
    <path d="M 368.57 158.823307 
L 369.904343 158.823307 
L 371.238687 158.823307 
L 372.57303 158.823307 
L 373.907374 158.823307 
L 375.241717 158.823307 
L 376.576061 158.823307 
L 377.910404 158.823307 
L 379.244747 158.823307 
L 380.579091 158.823307 
L 381.913434 158.823307 
L 383.247778 158.823307 
L 384.582121 158.823307 
L 385.916465 158.823307 
L 387.250808 158.823307 
L 388.585152 158.823307 
L 389.919495 158.823307 
L 391.253838 158.823307 
L 392.588182 158.823307 
L 393.922525 158.823307 
L 395.256869 158.823307 
L 396.591212 158.823307 
L 397.925556 158.823307 
L 399.259899 158.823307 
L 400.594242 158.823307 
L 401.928586 158.823307 
L 403.262929 158.823307 
L 404.597273 158.823307 
L 405.931616 158.823307 
L 407.26596 158.823307 
L 408.600303 158.823307 
L 409.934646 158.823307 
L 411.26899 158.823307 
L 412.603333 158.823307 
L 413.937677 158.823307 
L 415.27202 158.823307 
L 416.606364 158.823307 
L 417.940707 158.823307 
L 419.275051 158.823307 
L 420.609394 158.823307 
L 421.943737 158.823307 
L 423.278081 158.823307 
L 424.612424 158.823307 
L 425.946768 158.823307 
L 427.281111 158.823307 
L 428.615455 158.823307 
L 429.949798 158.823307 
L 431.284141 158.823307 
L 432.618485 158.823307 
L 433.952828 158.823307 
L 435.287172 157.538091 
L 436.621515 154.967659 
L 437.955859 152.397228 
L 439.290202 149.826796 
L 440.624545 147.256365 
L 441.958889 144.685933 
L 443.293232 142.115501 
L 444.627576 139.54507 
L 445.961919 136.974638 
L 447.296263 134.404207 
L 448.630606 131.833775 
L 449.964949 129.263344 
L 451.299293 126.692912 
L 452.633636 124.12248 
L 453.96798 121.552049 
L 455.302323 118.981617 
L 456.636667 116.411186 
L 457.97101 113.840754 
L 459.305354 111.270322 
L 460.639697 108.699891 
L 461.97404 106.129459 
L 463.308384 103.559028 
L 464.642727 100.988596 
L 465.977071 98.418164 
L 467.311414 95.847733 
L 468.645758 93.277301 
L 469.980101 90.70687 
L 471.314444 88.136438 
L 472.648788 85.566007 
L 473.983131 82.995575 
L 475.317475 80.425143 
L 476.651818 77.854712 
L 477.986162 75.28428 
L 479.320505 72.713849 
L 480.654848 70.143417 
L 481.989192 67.572985 
L 483.323535 65.002554 
L 484.657879 62.432122 
L 485.992222 59.861691 
L 487.326566 57.291259 
L 488.660909 54.720827 
L 489.995253 52.150396 
L 491.329596 49.579964 
L 492.663939 47.009533 
L 493.998283 44.439101 
L 495.332626 41.86867 
L 496.66697 39.298238 
L 498.001313 36.727806 
L 499.335657 34.157375 
L 500.67 31.586943 
" clip-path="url(#pf7b3232429)" style="fill: none; stroke: #654718; stroke-width: 1.5; stroke-linecap: square"/>
   </g>
   <g id="line2d_20">
    <path d="M 434.62 165.185125 
L 434.62 25.225125 
" clip-path="url(#pf7b3232429)" style="fill: none; stroke-dasharray: 5.55,2.4; stroke-dashoffset: 0; stroke: #808080; stroke-width: 1.5"/>
   </g>
   <g id="patch_8">
    <path d="M 368.57 165.185125 
L 368.57 25.225125 
" style="fill: none; stroke: #000000; stroke-width: 0.8; stroke-linejoin: miter; stroke-linecap: square"/>
   </g>
   <g id="patch_9">
    <path d="M 500.67 165.185125 
L 500.67 25.225125 
" style="fill: none; stroke: #000000; stroke-width: 0.8; stroke-linejoin: miter; stroke-linecap: square"/>
   </g>
   <g id="patch_10">
    <path d="M 368.57 165.185125 
L 500.67 165.185125 
" style="fill: none; stroke: #000000; stroke-width: 0.8; stroke-linejoin: miter; stroke-linecap: square"/>
   </g>
   <g id="patch_11">
    <path d="M 368.57 25.225125 
L 500.67 25.225125 
" style="fill: none; stroke: #000000; stroke-width: 0.8; stroke-linejoin: miter; stroke-linecap: square"/>
   </g>
   <g id="text_22">
    <!-- TN2 -->
    <g transform="translate(418.751875 19.225125) scale(0.168 -0.168)">
     <defs>
      <path id="ArialMT-32" d="M 3222 541 
L 3222 0 
L 194 0 
Q 188 203 259 391 
Q 375 700 629 1000 
Q 884 1300 1366 1694 
Q 2113 2306 2375 2664 
Q 2638 3022 2638 3341 
Q 2638 3675 2398 3904 
Q 2159 4134 1775 4134 
Q 1369 4134 1125 3890 
Q 881 3647 878 3216 
L 300 3275 
Q 359 3922 746 4261 
Q 1134 4600 1788 4600 
Q 2447 4600 2831 4234 
Q 3216 3869 3216 3328 
Q 3216 3053 3103 2787 
Q 2991 2522 2730 2228 
Q 2469 1934 1863 1422 
Q 1356 997 1212 845 
Q 1069 694 975 541 
L 3222 541 
z
" transform="scale(0.015625)"/>
     </defs>
     <use xlink:href="#ArialMT-54"/>
     <use xlink:href="#ArialMT-4e" x="61.083984"/>
     <use xlink:href="#ArialMT-32" x="133.300781"/>
    </g>
   </g>
  </g>
  <g id="axes_3">
   <g id="patch_12">
    <path d="M 160.13 376.145125 
L 292.23 376.145125 
L 292.23 236.185125 
L 160.13 236.185125 
z
" style="fill: #ffffff"/>
   </g>
   <g id="matplotlib.axis_5">
    <g id="xtick_11">
     <g id="line2d_21">
      <g>
       <use xlink:href="#m2de46ddd2e" x="160.13" y="376.145125" style="stroke: #000000; stroke-width: 0.8"/>
      </g>
     </g>
     <g id="text_23">
      <!-- −1.0 -->
      <g transform="translate(146.311563 393.166062) scale(0.14 -0.14)">
       <use xlink:href="#ArialMT-2212"/>
       <use xlink:href="#ArialMT-31" x="58.398438"/>
       <use xlink:href="#ArialMT-2e" x="114.013672"/>
       <use xlink:href="#ArialMT-30" x="141.796875"/>
      </g>
     </g>
    </g>
    <g id="xtick_12">
     <g id="line2d_22">
      <g>
       <use xlink:href="#m2de46ddd2e" x="193.155" y="376.145125" style="stroke: #000000; stroke-width: 0.8"/>
      </g>
     </g>
     <g id="text_24">
      <!-- −0.5 -->
      <g transform="translate(179.336563 393.166062) scale(0.14 -0.14)">
       <use xlink:href="#ArialMT-2212"/>
       <use xlink:href="#ArialMT-30" x="58.398438"/>
       <use xlink:href="#ArialMT-2e" x="114.013672"/>
       <use xlink:href="#ArialMT-35" x="141.796875"/>
      </g>
     </g>
    </g>
    <g id="xtick_13">
     <g id="line2d_23">
      <g>
       <use xlink:href="#m2de46ddd2e" x="226.18" y="376.145125" style="stroke: #000000; stroke-width: 0.8"/>
      </g>
     </g>
     <g id="text_25">
      <!-- 0.0 -->
      <g transform="translate(216.45 393.166062) scale(0.14 -0.14)">
       <use xlink:href="#ArialMT-30"/>
       <use xlink:href="#ArialMT-2e" x="55.615234"/>
       <use xlink:href="#ArialMT-30" x="83.398438"/>
      </g>
     </g>
    </g>
    <g id="xtick_14">
     <g id="line2d_24">
      <g>
       <use xlink:href="#m2de46ddd2e" x="259.205" y="376.145125" style="stroke: #000000; stroke-width: 0.8"/>
      </g>
     </g>
     <g id="text_26">
      <!-- 0.5 -->
      <g transform="translate(249.475 393.166062) scale(0.14 -0.14)">
       <use xlink:href="#ArialMT-30"/>
       <use xlink:href="#ArialMT-2e" x="55.615234"/>
       <use xlink:href="#ArialMT-35" x="83.398438"/>
      </g>
     </g>
    </g>
    <g id="xtick_15">
     <g id="line2d_25">
      <g>
       <use xlink:href="#m2de46ddd2e" x="292.23" y="376.145125" style="stroke: #000000; stroke-width: 0.8"/>
      </g>
     </g>
     <g id="text_27">
      <!-- 1.0 -->
      <g transform="translate(282.5 393.166062) scale(0.14 -0.14)">
       <use xlink:href="#ArialMT-31"/>
       <use xlink:href="#ArialMT-2e" x="55.615234"/>
       <use xlink:href="#ArialMT-30" x="83.398438"/>
      </g>
     </g>
    </g>
    <g id="text_28">
     <!-- Speed in preferred direction -->
     <g transform="translate(139.801094 410.140125) scale(0.14 -0.14)">
      <use xlink:href="#ArialMT-53"/>
      <use xlink:href="#ArialMT-70" x="66.699219"/>
      <use xlink:href="#ArialMT-65" x="122.314453"/>
      <use xlink:href="#ArialMT-65" x="177.929688"/>
      <use xlink:href="#ArialMT-64" x="233.544922"/>
      <use xlink:href="#ArialMT-20" x="289.160156"/>
      <use xlink:href="#ArialMT-69" x="316.943359"/>
      <use xlink:href="#ArialMT-6e" x="339.160156"/>
      <use xlink:href="#ArialMT-20" x="394.775391"/>
      <use xlink:href="#ArialMT-70" x="422.558594"/>
      <use xlink:href="#ArialMT-72" x="478.173828"/>
      <use xlink:href="#ArialMT-65" x="511.474609"/>
      <use xlink:href="#ArialMT-66" x="567.089844"/>
      <use xlink:href="#ArialMT-65" x="594.873047"/>
      <use xlink:href="#ArialMT-72" x="650.488281"/>
      <use xlink:href="#ArialMT-72" x="683.789062"/>
      <use xlink:href="#ArialMT-65" x="717.089844"/>
      <use xlink:href="#ArialMT-64" x="772.705078"/>
      <use xlink:href="#ArialMT-20" x="828.320312"/>
      <use xlink:href="#ArialMT-64" x="856.103516"/>
      <use xlink:href="#ArialMT-69" x="911.71875"/>
      <use xlink:href="#ArialMT-72" x="933.935547"/>
      <use xlink:href="#ArialMT-65" x="967.236328"/>
      <use xlink:href="#ArialMT-63" x="1022.851562"/>
      <use xlink:href="#ArialMT-74" x="1072.851562"/>
      <use xlink:href="#ArialMT-69" x="1100.634766"/>
      <use xlink:href="#ArialMT-6f" x="1122.851562"/>
      <use xlink:href="#ArialMT-6e" x="1178.466797"/>
     </g>
    </g>
   </g>
   <g id="matplotlib.axis_6">
    <g id="ytick_7">
     <g id="line2d_26">
      <g>
       <use xlink:href="#m3be1e765d0" x="160.13" y="369.783307" style="stroke: #000000; stroke-width: 0.8"/>
      </g>
     </g>
     <g id="text_29">
      <!-- 0.0 -->
      <g transform="translate(133.67 374.793776) scale(0.14 -0.14)">
       <use xlink:href="#ArialMT-30"/>
       <use xlink:href="#ArialMT-2e" x="55.615234"/>
       <use xlink:href="#ArialMT-30" x="83.398438"/>
      </g>
     </g>
    </g>
    <g id="ytick_8">
     <g id="line2d_27">
      <g>
       <use xlink:href="#m3be1e765d0" x="160.13" y="306.165125" style="stroke: #000000; stroke-width: 0.8"/>
      </g>
     </g>
     <g id="text_30">
      <!-- 0.5 -->
      <g transform="translate(133.67 311.175594) scale(0.14 -0.14)">
       <use xlink:href="#ArialMT-30"/>
       <use xlink:href="#ArialMT-2e" x="55.615234"/>
       <use xlink:href="#ArialMT-35" x="83.398438"/>
      </g>
     </g>
    </g>
    <g id="ytick_9">
     <g id="line2d_28">
      <g>
       <use xlink:href="#m3be1e765d0" x="160.13" y="242.546943" style="stroke: #000000; stroke-width: 0.8"/>
      </g>
     </g>
     <g id="text_31">
      <!-- 1.0 -->
      <g transform="translate(133.67 247.557412) scale(0.14 -0.14)">
       <use xlink:href="#ArialMT-31"/>
       <use xlink:href="#ArialMT-2e" x="55.615234"/>
       <use xlink:href="#ArialMT-30" x="83.398438"/>
      </g>
     </g>
    </g>
    <g id="text_32">
     <!-- Output firing rate -->
     <g transform="translate(126.723438 358.298719) rotate(-90) scale(0.14 -0.14)">
      <use xlink:href="#ArialMT-4f"/>
      <use xlink:href="#ArialMT-75" x="77.783203"/>
      <use xlink:href="#ArialMT-74" x="133.398438"/>
      <use xlink:href="#ArialMT-70" x="161.181641"/>
      <use xlink:href="#ArialMT-75" x="216.796875"/>
      <use xlink:href="#ArialMT-74" x="272.412109"/>
      <use xlink:href="#ArialMT-20" x="300.195312"/>
      <use xlink:href="#ArialMT-66" x="327.978516"/>
      <use xlink:href="#ArialMT-69" x="355.761719"/>
      <use xlink:href="#ArialMT-72" x="377.978516"/>
      <use xlink:href="#ArialMT-69" x="411.279297"/>
      <use xlink:href="#ArialMT-6e" x="433.496094"/>
      <use xlink:href="#ArialMT-67" x="489.111328"/>
      <use xlink:href="#ArialMT-20" x="544.726562"/>
      <use xlink:href="#ArialMT-72" x="572.509766"/>
      <use xlink:href="#ArialMT-61" x="605.810547"/>
      <use xlink:href="#ArialMT-74" x="661.425781"/>
      <use xlink:href="#ArialMT-65" x="689.208984"/>
     </g>
    </g>
   </g>
   <g id="line2d_29">
    <path d="M 160.13 242.546943 
L 161.464343 263.761234 
L 162.798687 242.665881 
L 164.13303 242.546943 
L 165.467374 248.476882 
L 166.801717 242.546943 
L 168.136061 269.832859 
L 169.470404 275.96985 
L 170.804747 245.139023 
L 172.139091 256.274898 
L 173.473434 255.134953 
L 174.807778 252.624329 
L 176.142121 251.969465 
L 177.476465 242.546943 
L 178.810808 242.546943 
L 180.145152 242.546943 
L 181.479495 261.146468 
L 182.813838 270.222205 
L 184.148182 282.344271 
L 185.482525 264.63526 
L 186.816869 260.460723 
L 188.151212 261.372123 
L 189.485556 279.083212 
L 190.819899 274.902931 
L 192.154242 258.69562 
L 193.488586 274.593412 
L 194.822929 293.764572 
L 196.157273 286.2946 
L 197.491616 268.921573 
L 198.82596 283.266795 
L 200.160303 283.350836 
L 201.494646 285.320726 
L 202.82899 289.938531 
L 204.163333 285.818794 
L 205.497677 300.03218 
L 206.83202 282.198662 
L 208.166364 293.366764 
L 209.500707 270.931132 
L 210.835051 304.785795 
L 212.169394 305.893468 
L 213.503737 300.347308 
L 214.838081 300.879333 
L 216.172424 284.026844 
L 217.506768 279.601534 
L 218.841111 287.947985 
L 220.175455 307.644233 
L 221.509798 280.97513 
L 222.844141 312.911462 
L 224.178485 290.988739 
L 225.512828 303.74272 
L 226.847172 328.648019 
L 228.181515 301.405573 
L 229.515859 296.167843 
L 230.850202 309.766166 
L 232.184545 318.231925 
L 233.518889 289.83956 
L 234.853232 313.688615 
L 236.187576 312.105939 
L 237.521919 330.625071 
L 238.856263 330.314577 
L 240.190606 316.83966 
L 241.524949 306.475884 
L 242.859293 308.339707 
L 244.193636 345.068293 
L 245.52798 322.228543 
L 246.862323 332.912861 
L 248.196667 331.009569 
L 249.53101 342.317164 
L 250.865354 332.825826 
L 252.199697 325.26068 
L 253.53404 322.020413 
L 254.868384 335.085294 
L 256.202727 331.574167 
L 257.537071 342.777501 
L 258.871414 356.242421 
L 260.205758 369.537849 
L 261.540101 360.077292 
L 262.874444 328.236257 
L 264.208788 369.783307 
L 265.543131 348.225556 
L 266.877475 355.83235 
L 268.211818 346.751855 
L 269.546162 342.265654 
L 270.880505 358.982509 
L 272.214848 357.871587 
L 273.549192 337.345904 
L 274.883535 343.775304 
L 276.217879 367.985279 
L 277.552222 354.843328 
L 278.886566 346.331589 
L 280.220909 361.7638 
L 281.555253 363.933347 
L 282.889596 357.927785 
L 284.223939 356.343911 
L 285.558283 360.47278 
L 286.892626 369.783307 
L 288.22697 364.35135 
L 289.561313 361.047089 
L 290.895657 368.383841 
L 292.23 369.109342 
" clip-path="url(#p56a321c43c)" style="fill: none; stroke: #8f7b5d; stroke-width: 1.5; stroke-linecap: square"/>
   </g>
   <g id="line2d_30">
    <path d="M 226.18 376.145125 
L 226.18 236.185125 
" clip-path="url(#p56a321c43c)" style="fill: none; stroke-dasharray: 5.55,2.4; stroke-dashoffset: 0; stroke: #808080; stroke-width: 1.5"/>
   </g>
   <g id="patch_13">
    <path d="M 160.13 376.145125 
L 160.13 236.185125 
" style="fill: none; stroke: #000000; stroke-width: 0.8; stroke-linejoin: miter; stroke-linecap: square"/>
   </g>
   <g id="patch_14">
    <path d="M 292.23 376.145125 
L 292.23 236.185125 
" style="fill: none; stroke: #000000; stroke-width: 0.8; stroke-linejoin: miter; stroke-linecap: square"/>
   </g>
   <g id="patch_15">
    <path d="M 160.13 376.145125 
L 292.23 376.145125 
" style="fill: none; stroke: #000000; stroke-width: 0.8; stroke-linejoin: miter; stroke-linecap: square"/>
   </g>
   <g id="patch_16">
    <path d="M 160.13 236.185125 
L 292.23 236.185125 
" style="fill: none; stroke: #000000; stroke-width: 0.8; stroke-linejoin: miter; stroke-linecap: square"/>
   </g>
   <g id="text_33">
    <!-- TN1 -->
    <g transform="translate(210.311875 230.185125) scale(0.168 -0.168)">
     <use xlink:href="#ArialMT-54"/>
     <use xlink:href="#ArialMT-4e" x="61.083984"/>
     <use xlink:href="#ArialMT-31" x="133.300781"/>
    </g>
   </g>
  </g>
  <g id="axes_4">
   <g id="patch_17">
    <path d="M 368.57 376.145125 
L 500.67 376.145125 
L 500.67 236.185125 
L 368.57 236.185125 
z
" style="fill: #ffffff"/>
   </g>
   <g id="matplotlib.axis_7">
    <g id="xtick_16">
     <g id="line2d_31">
      <g>
       <use xlink:href="#m2de46ddd2e" x="368.57" y="376.145125" style="stroke: #000000; stroke-width: 0.8"/>
      </g>
     </g>
     <g id="text_34">
      <!-- −1.0 -->
      <g transform="translate(354.751562 393.166062) scale(0.14 -0.14)">
       <use xlink:href="#ArialMT-2212"/>
       <use xlink:href="#ArialMT-31" x="58.398438"/>
       <use xlink:href="#ArialMT-2e" x="114.013672"/>
       <use xlink:href="#ArialMT-30" x="141.796875"/>
      </g>
     </g>
    </g>
    <g id="xtick_17">
     <g id="line2d_32">
      <g>
       <use xlink:href="#m2de46ddd2e" x="401.595" y="376.145125" style="stroke: #000000; stroke-width: 0.8"/>
      </g>
     </g>
     <g id="text_35">
      <!-- −0.5 -->
      <g transform="translate(387.776563 393.166062) scale(0.14 -0.14)">
       <use xlink:href="#ArialMT-2212"/>
       <use xlink:href="#ArialMT-30" x="58.398438"/>
       <use xlink:href="#ArialMT-2e" x="114.013672"/>
       <use xlink:href="#ArialMT-35" x="141.796875"/>
      </g>
     </g>
    </g>
    <g id="xtick_18">
     <g id="line2d_33">
      <g>
       <use xlink:href="#m2de46ddd2e" x="434.62" y="376.145125" style="stroke: #000000; stroke-width: 0.8"/>
      </g>
     </g>
     <g id="text_36">
      <!-- 0.0 -->
      <g transform="translate(424.89 393.166062) scale(0.14 -0.14)">
       <use xlink:href="#ArialMT-30"/>
       <use xlink:href="#ArialMT-2e" x="55.615234"/>
       <use xlink:href="#ArialMT-30" x="83.398438"/>
      </g>
     </g>
    </g>
    <g id="xtick_19">
     <g id="line2d_34">
      <g>
       <use xlink:href="#m2de46ddd2e" x="467.645" y="376.145125" style="stroke: #000000; stroke-width: 0.8"/>
      </g>
     </g>
     <g id="text_37">
      <!-- 0.5 -->
      <g transform="translate(457.915 393.166062) scale(0.14 -0.14)">
       <use xlink:href="#ArialMT-30"/>
       <use xlink:href="#ArialMT-2e" x="55.615234"/>
       <use xlink:href="#ArialMT-35" x="83.398438"/>
      </g>
     </g>
    </g>
    <g id="xtick_20">
     <g id="line2d_35">
      <g>
       <use xlink:href="#m2de46ddd2e" x="500.67" y="376.145125" style="stroke: #000000; stroke-width: 0.8"/>
      </g>
     </g>
     <g id="text_38">
      <!-- 1.0 -->
      <g transform="translate(490.94 393.166062) scale(0.14 -0.14)">
       <use xlink:href="#ArialMT-31"/>
       <use xlink:href="#ArialMT-2e" x="55.615234"/>
       <use xlink:href="#ArialMT-30" x="83.398438"/>
      </g>
     </g>
    </g>
    <g id="text_39">
     <!-- Speed in preferred direction -->
     <g transform="translate(348.241094 410.140125) scale(0.14 -0.14)">
      <use xlink:href="#ArialMT-53"/>
      <use xlink:href="#ArialMT-70" x="66.699219"/>
      <use xlink:href="#ArialMT-65" x="122.314453"/>
      <use xlink:href="#ArialMT-65" x="177.929688"/>
      <use xlink:href="#ArialMT-64" x="233.544922"/>
      <use xlink:href="#ArialMT-20" x="289.160156"/>
      <use xlink:href="#ArialMT-69" x="316.943359"/>
      <use xlink:href="#ArialMT-6e" x="339.160156"/>
      <use xlink:href="#ArialMT-20" x="394.775391"/>
      <use xlink:href="#ArialMT-70" x="422.558594"/>
      <use xlink:href="#ArialMT-72" x="478.173828"/>
      <use xlink:href="#ArialMT-65" x="511.474609"/>
      <use xlink:href="#ArialMT-66" x="567.089844"/>
      <use xlink:href="#ArialMT-65" x="594.873047"/>
      <use xlink:href="#ArialMT-72" x="650.488281"/>
      <use xlink:href="#ArialMT-72" x="683.789062"/>
      <use xlink:href="#ArialMT-65" x="717.089844"/>
      <use xlink:href="#ArialMT-64" x="772.705078"/>
      <use xlink:href="#ArialMT-20" x="828.320312"/>
      <use xlink:href="#ArialMT-64" x="856.103516"/>
      <use xlink:href="#ArialMT-69" x="911.71875"/>
      <use xlink:href="#ArialMT-72" x="933.935547"/>
      <use xlink:href="#ArialMT-65" x="967.236328"/>
      <use xlink:href="#ArialMT-63" x="1022.851562"/>
      <use xlink:href="#ArialMT-74" x="1072.851562"/>
      <use xlink:href="#ArialMT-69" x="1100.634766"/>
      <use xlink:href="#ArialMT-6f" x="1122.851562"/>
      <use xlink:href="#ArialMT-6e" x="1178.466797"/>
     </g>
    </g>
   </g>
   <g id="matplotlib.axis_8">
    <g id="ytick_10">
     <g id="line2d_36">
      <g>
       <use xlink:href="#m3be1e765d0" x="368.57" y="369.783307" style="stroke: #000000; stroke-width: 0.8"/>
      </g>
     </g>
     <g id="text_40">
      <!-- 0.0 -->
      <g transform="translate(342.11 374.793776) scale(0.14 -0.14)">
       <use xlink:href="#ArialMT-30"/>
       <use xlink:href="#ArialMT-2e" x="55.615234"/>
       <use xlink:href="#ArialMT-30" x="83.398438"/>
      </g>
     </g>
    </g>
    <g id="ytick_11">
     <g id="line2d_37">
      <g>
       <use xlink:href="#m3be1e765d0" x="368.57" y="306.165125" style="stroke: #000000; stroke-width: 0.8"/>
      </g>
     </g>
     <g id="text_41">
      <!-- 0.5 -->
      <g transform="translate(342.11 311.175594) scale(0.14 -0.14)">
       <use xlink:href="#ArialMT-30"/>
       <use xlink:href="#ArialMT-2e" x="55.615234"/>
       <use xlink:href="#ArialMT-35" x="83.398438"/>
      </g>
     </g>
    </g>
    <g id="ytick_12">
     <g id="line2d_38">
      <g>
       <use xlink:href="#m3be1e765d0" x="368.57" y="242.546943" style="stroke: #000000; stroke-width: 0.8"/>
      </g>
     </g>
     <g id="text_42">
      <!-- 1.0 -->
      <g transform="translate(342.11 247.557412) scale(0.14 -0.14)">
       <use xlink:href="#ArialMT-31"/>
       <use xlink:href="#ArialMT-2e" x="55.615234"/>
       <use xlink:href="#ArialMT-30" x="83.398438"/>
      </g>
     </g>
    </g>
    <g id="text_43">
     <!-- Output firing rate -->
     <g transform="translate(335.163437 358.298719) rotate(-90) scale(0.14 -0.14)">
      <use xlink:href="#ArialMT-4f"/>
      <use xlink:href="#ArialMT-75" x="77.783203"/>
      <use xlink:href="#ArialMT-74" x="133.398438"/>
      <use xlink:href="#ArialMT-70" x="161.181641"/>
      <use xlink:href="#ArialMT-75" x="216.796875"/>
      <use xlink:href="#ArialMT-74" x="272.412109"/>
      <use xlink:href="#ArialMT-20" x="300.195312"/>
      <use xlink:href="#ArialMT-66" x="327.978516"/>
      <use xlink:href="#ArialMT-69" x="355.761719"/>
      <use xlink:href="#ArialMT-72" x="377.978516"/>
      <use xlink:href="#ArialMT-69" x="411.279297"/>
      <use xlink:href="#ArialMT-6e" x="433.496094"/>
      <use xlink:href="#ArialMT-67" x="489.111328"/>
      <use xlink:href="#ArialMT-20" x="544.726562"/>
      <use xlink:href="#ArialMT-72" x="572.509766"/>
      <use xlink:href="#ArialMT-61" x="605.810547"/>
      <use xlink:href="#ArialMT-74" x="661.425781"/>
      <use xlink:href="#ArialMT-65" x="689.208984"/>
     </g>
    </g>
   </g>
   <g id="line2d_39">
    <path d="M 368.57 369.783307 
L 369.904343 369.783307 
L 371.238687 369.783307 
L 372.57303 369.783307 
L 373.907374 369.783307 
L 375.241717 369.783307 
L 376.576061 369.783307 
L 377.910404 369.783307 
L 379.244747 369.783307 
L 380.579091 369.783307 
L 381.913434 369.783307 
L 383.247778 369.783307 
L 384.582121 369.783307 
L 385.916465 369.783307 
L 387.250808 369.783307 
L 388.585152 369.783307 
L 389.919495 369.783307 
L 391.253838 369.783307 
L 392.588182 369.783307 
L 393.922525 369.783307 
L 395.256869 369.783307 
L 396.591212 369.783307 
L 397.925556 369.783307 
L 399.259899 369.783307 
L 400.594242 369.783307 
L 401.928586 369.783307 
L 403.262929 369.783307 
L 404.597273 369.783307 
L 405.931616 369.783307 
L 407.26596 369.783307 
L 408.600303 369.783307 
L 409.934646 369.783307 
L 411.26899 369.783307 
L 412.603333 369.783307 
L 413.937677 369.783307 
L 415.27202 369.783307 
L 416.606364 369.783307 
L 417.940707 369.783307 
L 419.275051 369.783307 
L 420.609394 369.783307 
L 421.943737 369.783307 
L 423.278081 369.783307 
L 424.612424 368.822717 
L 425.946768 369.783307 
L 427.281111 369.783307 
L 428.615455 367.4327 
L 429.949798 369.783307 
L 431.284141 369.783307 
L 432.618485 369.783307 
L 433.952828 357.008052 
L 435.287172 358.154899 
L 436.621515 360.460369 
L 437.955859 360.593081 
L 439.290202 342.068436 
L 440.624545 349.809803 
L 441.958889 349.463884 
L 443.293232 340.879928 
L 444.627576 364.577493 
L 445.961919 356.367927 
L 447.296263 333.762688 
L 448.630606 346.486378 
L 449.964949 369.783307 
L 451.299293 353.629304 
L 452.633636 336.576904 
L 453.96798 340.547745 
L 455.302323 319.815164 
L 456.636667 321.314225 
L 457.97101 316.971237 
L 459.305354 331.235796 
L 460.639697 316.222908 
L 461.97404 340.703477 
L 463.308384 321.266604 
L 464.642727 300.158958 
L 465.977071 322.44358 
L 467.311414 318.250288 
L 468.645758 302.436324 
L 469.980101 315.616084 
L 471.314444 293.494549 
L 472.648788 275.548245 
L 473.983131 294.021038 
L 475.317475 293.523517 
L 476.651818 264.563994 
L 477.986162 296.55153 
L 479.320505 276.057085 
L 480.654848 283.669819 
L 481.989192 249.046106 
L 483.323535 280.163685 
L 484.657879 284.273038 
L 485.992222 283.55302 
L 487.326566 282.742301 
L 488.660909 270.554745 
L 489.995253 271.448889 
L 491.329596 261.279564 
L 492.663939 266.452084 
L 493.998283 256.421204 
L 495.332626 249.954162 
L 496.66697 242.546943 
L 498.001313 242.546943 
L 499.335657 254.394276 
L 500.67 259.625735 
" clip-path="url(#pb5f173cfdc)" style="fill: none; stroke: #654718; stroke-width: 1.5; stroke-linecap: square"/>
   </g>
   <g id="line2d_40">
    <path d="M 434.62 376.145125 
L 434.62 236.185125 
" clip-path="url(#pb5f173cfdc)" style="fill: none; stroke-dasharray: 5.55,2.4; stroke-dashoffset: 0; stroke: #808080; stroke-width: 1.5"/>
   </g>
   <g id="patch_18">
    <path d="M 368.57 376.145125 
L 368.57 236.185125 
" style="fill: none; stroke: #000000; stroke-width: 0.8; stroke-linejoin: miter; stroke-linecap: square"/>
   </g>
   <g id="patch_19">
    <path d="M 500.67 376.145125 
L 500.67 236.185125 
" style="fill: none; stroke: #000000; stroke-width: 0.8; stroke-linejoin: miter; stroke-linecap: square"/>
   </g>
   <g id="patch_20">
    <path d="M 368.57 376.145125 
L 500.67 376.145125 
" style="fill: none; stroke: #000000; stroke-width: 0.8; stroke-linejoin: miter; stroke-linecap: square"/>
   </g>
   <g id="patch_21">
    <path d="M 368.57 236.185125 
L 500.67 236.185125 
" style="fill: none; stroke: #000000; stroke-width: 0.8; stroke-linejoin: miter; stroke-linecap: square"/>
   </g>
   <g id="text_44">
    <!-- TN2 -->
    <g transform="translate(418.751875 230.185125) scale(0.168 -0.168)">
     <use xlink:href="#ArialMT-54"/>
     <use xlink:href="#ArialMT-4e" x="61.083984"/>
     <use xlink:href="#ArialMT-32" x="133.300781"/>
    </g>
   </g>
  </g>
  <g id="axes_5">
   <g id="patch_22">
    <path d="M 160.13 587.105125 
L 292.23 587.105125 
L 292.23 447.145125 
L 160.13 447.145125 
z
" style="fill: #ffffff"/>
   </g>
   <g id="matplotlib.axis_9">
    <g id="xtick_21">
     <g id="line2d_41">
      <g>
       <use xlink:href="#m2de46ddd2e" x="160.13" y="587.105125" style="stroke: #000000; stroke-width: 0.8"/>
      </g>
     </g>
     <g id="text_45">
      <!-- −1.0 -->
      <g transform="translate(146.311563 604.126062) scale(0.14 -0.14)">
       <use xlink:href="#ArialMT-2212"/>
       <use xlink:href="#ArialMT-31" x="58.398438"/>
       <use xlink:href="#ArialMT-2e" x="114.013672"/>
       <use xlink:href="#ArialMT-30" x="141.796875"/>
      </g>
     </g>
    </g>
    <g id="xtick_22">
     <g id="line2d_42">
      <g>
       <use xlink:href="#m2de46ddd2e" x="193.155" y="587.105125" style="stroke: #000000; stroke-width: 0.8"/>
      </g>
     </g>
     <g id="text_46">
      <!-- −0.5 -->
      <g transform="translate(179.336563 604.126062) scale(0.14 -0.14)">
       <use xlink:href="#ArialMT-2212"/>
       <use xlink:href="#ArialMT-30" x="58.398438"/>
       <use xlink:href="#ArialMT-2e" x="114.013672"/>
       <use xlink:href="#ArialMT-35" x="141.796875"/>
      </g>
     </g>
    </g>
    <g id="xtick_23">
     <g id="line2d_43">
      <g>
       <use xlink:href="#m2de46ddd2e" x="226.18" y="587.105125" style="stroke: #000000; stroke-width: 0.8"/>
      </g>
     </g>
     <g id="text_47">
      <!-- 0.0 -->
      <g transform="translate(216.45 604.126062) scale(0.14 -0.14)">
       <use xlink:href="#ArialMT-30"/>
       <use xlink:href="#ArialMT-2e" x="55.615234"/>
       <use xlink:href="#ArialMT-30" x="83.398438"/>
      </g>
     </g>
    </g>
    <g id="xtick_24">
     <g id="line2d_44">
      <g>
       <use xlink:href="#m2de46ddd2e" x="259.205" y="587.105125" style="stroke: #000000; stroke-width: 0.8"/>
      </g>
     </g>
     <g id="text_48">
      <!-- 0.5 -->
      <g transform="translate(249.475 604.126062) scale(0.14 -0.14)">
       <use xlink:href="#ArialMT-30"/>
       <use xlink:href="#ArialMT-2e" x="55.615234"/>
       <use xlink:href="#ArialMT-35" x="83.398438"/>
      </g>
     </g>
    </g>
    <g id="xtick_25">
     <g id="line2d_45">
      <g>
       <use xlink:href="#m2de46ddd2e" x="292.23" y="587.105125" style="stroke: #000000; stroke-width: 0.8"/>
      </g>
     </g>
     <g id="text_49">
      <!-- 1.0 -->
      <g transform="translate(282.5 604.126062) scale(0.14 -0.14)">
       <use xlink:href="#ArialMT-31"/>
       <use xlink:href="#ArialMT-2e" x="55.615234"/>
       <use xlink:href="#ArialMT-30" x="83.398438"/>
      </g>
     </g>
    </g>
    <g id="text_50">
     <!-- Speed in preferred direction -->
     <g transform="translate(139.801094 621.100125) scale(0.14 -0.14)">
      <use xlink:href="#ArialMT-53"/>
      <use xlink:href="#ArialMT-70" x="66.699219"/>
      <use xlink:href="#ArialMT-65" x="122.314453"/>
      <use xlink:href="#ArialMT-65" x="177.929688"/>
      <use xlink:href="#ArialMT-64" x="233.544922"/>
      <use xlink:href="#ArialMT-20" x="289.160156"/>
      <use xlink:href="#ArialMT-69" x="316.943359"/>
      <use xlink:href="#ArialMT-6e" x="339.160156"/>
      <use xlink:href="#ArialMT-20" x="394.775391"/>
      <use xlink:href="#ArialMT-70" x="422.558594"/>
      <use xlink:href="#ArialMT-72" x="478.173828"/>
      <use xlink:href="#ArialMT-65" x="511.474609"/>
      <use xlink:href="#ArialMT-66" x="567.089844"/>
      <use xlink:href="#ArialMT-65" x="594.873047"/>
      <use xlink:href="#ArialMT-72" x="650.488281"/>
      <use xlink:href="#ArialMT-72" x="683.789062"/>
      <use xlink:href="#ArialMT-65" x="717.089844"/>
      <use xlink:href="#ArialMT-64" x="772.705078"/>
      <use xlink:href="#ArialMT-20" x="828.320312"/>
      <use xlink:href="#ArialMT-64" x="856.103516"/>
      <use xlink:href="#ArialMT-69" x="911.71875"/>
      <use xlink:href="#ArialMT-72" x="933.935547"/>
      <use xlink:href="#ArialMT-65" x="967.236328"/>
      <use xlink:href="#ArialMT-63" x="1022.851562"/>
      <use xlink:href="#ArialMT-74" x="1072.851562"/>
      <use xlink:href="#ArialMT-69" x="1100.634766"/>
      <use xlink:href="#ArialMT-6f" x="1122.851562"/>
      <use xlink:href="#ArialMT-6e" x="1178.466797"/>
     </g>
    </g>
   </g>
   <g id="matplotlib.axis_10">
    <g id="ytick_13">
     <g id="line2d_46">
      <g>
       <use xlink:href="#m3be1e765d0" x="160.13" y="580.743307" style="stroke: #000000; stroke-width: 0.8"/>
      </g>
     </g>
     <g id="text_51">
      <!-- 0.0 -->
      <g transform="translate(133.67 585.753776) scale(0.14 -0.14)">
       <use xlink:href="#ArialMT-30"/>
       <use xlink:href="#ArialMT-2e" x="55.615234"/>
       <use xlink:href="#ArialMT-30" x="83.398438"/>
      </g>
     </g>
    </g>
    <g id="ytick_14">
     <g id="line2d_47">
      <g>
       <use xlink:href="#m3be1e765d0" x="160.13" y="517.125125" style="stroke: #000000; stroke-width: 0.8"/>
      </g>
     </g>
     <g id="text_52">
      <!-- 0.5 -->
      <g transform="translate(133.67 522.135594) scale(0.14 -0.14)">
       <use xlink:href="#ArialMT-30"/>
       <use xlink:href="#ArialMT-2e" x="55.615234"/>
       <use xlink:href="#ArialMT-35" x="83.398438"/>
      </g>
     </g>
    </g>
    <g id="ytick_15">
     <g id="line2d_48">
      <g>
       <use xlink:href="#m3be1e765d0" x="160.13" y="453.506943" style="stroke: #000000; stroke-width: 0.8"/>
      </g>
     </g>
     <g id="text_53">
      <!-- 1.0 -->
      <g transform="translate(133.67 458.517412) scale(0.14 -0.14)">
       <use xlink:href="#ArialMT-31"/>
       <use xlink:href="#ArialMT-2e" x="55.615234"/>
       <use xlink:href="#ArialMT-30" x="83.398438"/>
      </g>
     </g>
    </g>
    <g id="text_54">
     <!-- Output firing rate -->
     <g transform="translate(126.723438 569.258719) rotate(-90) scale(0.14 -0.14)">
      <use xlink:href="#ArialMT-4f"/>
      <use xlink:href="#ArialMT-75" x="77.783203"/>
      <use xlink:href="#ArialMT-74" x="133.398438"/>
      <use xlink:href="#ArialMT-70" x="161.181641"/>
      <use xlink:href="#ArialMT-75" x="216.796875"/>
      <use xlink:href="#ArialMT-74" x="272.412109"/>
      <use xlink:href="#ArialMT-20" x="300.195312"/>
      <use xlink:href="#ArialMT-66" x="327.978516"/>
      <use xlink:href="#ArialMT-69" x="355.761719"/>
      <use xlink:href="#ArialMT-72" x="377.978516"/>
      <use xlink:href="#ArialMT-69" x="411.279297"/>
      <use xlink:href="#ArialMT-6e" x="433.496094"/>
      <use xlink:href="#ArialMT-67" x="489.111328"/>
      <use xlink:href="#ArialMT-20" x="544.726562"/>
      <use xlink:href="#ArialMT-72" x="572.509766"/>
      <use xlink:href="#ArialMT-61" x="605.810547"/>
      <use xlink:href="#ArialMT-74" x="661.425781"/>
      <use xlink:href="#ArialMT-65" x="689.208984"/>
     </g>
    </g>
   </g>
   <g id="line2d_49">
    <path d="M 160.13 522.340252 
L 161.464343 526.329083 
L 162.798687 453.506943 
L 164.13303 499.429544 
L 165.467374 491.84443 
L 166.801717 491.262141 
L 168.136061 453.506943 
L 169.470404 453.506943 
L 170.804747 453.506943 
L 172.139091 453.506943 
L 173.473434 504.507508 
L 174.807778 458.720558 
L 176.142121 487.37604 
L 177.476465 453.506943 
L 178.810808 453.506943 
L 180.145152 453.506943 
L 181.479495 475.226097 
L 182.813838 488.134605 
L 184.148182 508.985882 
L 185.482525 483.760084 
L 186.816869 518.359108 
L 188.151212 464.194064 
L 189.485556 457.848801 
L 190.819899 513.716624 
L 192.154242 453.506943 
L 193.488586 555.73675 
L 194.822929 535.562227 
L 196.157273 529.561144 
L 197.491616 503.170137 
L 198.82596 523.174709 
L 200.160303 515.639697 
L 201.494646 520.828752 
L 202.82899 469.375373 
L 204.163333 563.121214 
L 205.497677 529.007289 
L 206.83202 453.506943 
L 208.166364 580.743307 
L 209.500707 453.506943 
L 210.835051 514.827725 
L 212.169394 453.506943 
L 213.503737 514.835058 
L 214.838081 573.297539 
L 216.172424 519.352354 
L 217.506768 453.506943 
L 218.841111 453.506943 
L 220.175455 464.796554 
L 221.509798 510.829008 
L 222.844141 486.69217 
L 224.178485 532.434103 
L 225.512828 567.48014 
L 226.847172 526.991043 
L 228.181515 522.257514 
L 229.515859 580.743307 
L 230.850202 454.228581 
L 232.184545 580.743307 
L 233.518889 473.974772 
L 234.853232 580.743307 
L 236.187576 490.284378 
L 237.521919 485.482785 
L 238.856263 580.743307 
L 240.190606 516.309072 
L 241.524949 573.422434 
L 242.859293 557.209238 
L 244.193636 492.233682 
L 245.52798 481.045276 
L 246.862323 499.746915 
L 248.196667 580.743307 
L 249.53101 580.743307 
L 250.865354 572.374412 
L 252.199697 560.255427 
L 253.53404 569.590348 
L 254.868384 558.308072 
L 256.202727 563.15756 
L 257.537071 482.891154 
L 258.871414 563.454555 
L 260.205758 544.673983 
L 261.540101 545.265289 
L 262.874444 555.236723 
L 264.208788 503.990067 
L 265.543131 510.43189 
L 266.877475 461.994747 
L 268.211818 516.465797 
L 269.546162 580.743307 
L 270.880505 580.743307 
L 272.214848 580.743307 
L 273.549192 542.148735 
L 274.883535 568.137955 
L 276.217879 492.803945 
L 277.552222 523.546312 
L 278.886566 526.551606 
L 280.220909 529.575083 
L 281.555253 580.743307 
L 282.889596 580.743307 
L 284.223939 577.630026 
L 285.558283 580.743307 
L 286.892626 537.598192 
L 288.22697 580.743307 
L 289.561313 550.102216 
L 290.895657 580.743307 
L 292.23 554.638234 
" clip-path="url(#paceb08e9b1)" style="fill: none; stroke: #8f7b5d; stroke-width: 1.5; stroke-linecap: square"/>
   </g>
   <g id="line2d_50">
    <path d="M 226.18 587.105125 
L 226.18 447.145125 
" clip-path="url(#paceb08e9b1)" style="fill: none; stroke-dasharray: 5.55,2.4; stroke-dashoffset: 0; stroke: #808080; stroke-width: 1.5"/>
   </g>
   <g id="patch_23">
    <path d="M 160.13 587.105125 
L 160.13 447.145125 
" style="fill: none; stroke: #000000; stroke-width: 0.8; stroke-linejoin: miter; stroke-linecap: square"/>
   </g>
   <g id="patch_24">
    <path d="M 292.23 587.105125 
L 292.23 447.145125 
" style="fill: none; stroke: #000000; stroke-width: 0.8; stroke-linejoin: miter; stroke-linecap: square"/>
   </g>
   <g id="patch_25">
    <path d="M 160.13 587.105125 
L 292.23 587.105125 
" style="fill: none; stroke: #000000; stroke-width: 0.8; stroke-linejoin: miter; stroke-linecap: square"/>
   </g>
   <g id="patch_26">
    <path d="M 160.13 447.145125 
L 292.23 447.145125 
" style="fill: none; stroke: #000000; stroke-width: 0.8; stroke-linejoin: miter; stroke-linecap: square"/>
   </g>
   <g id="text_55">
    <!-- TN1 -->
    <g transform="translate(210.311875 441.145125) scale(0.168 -0.168)">
     <use xlink:href="#ArialMT-54"/>
     <use xlink:href="#ArialMT-4e" x="61.083984"/>
     <use xlink:href="#ArialMT-31" x="133.300781"/>
    </g>
   </g>
  </g>
  <g id="axes_6">
   <g id="patch_27">
    <path d="M 368.57 587.105125 
L 500.67 587.105125 
L 500.67 447.145125 
L 368.57 447.145125 
z
" style="fill: #ffffff"/>
   </g>
   <g id="matplotlib.axis_11">
    <g id="xtick_26">
     <g id="line2d_51">
      <g>
       <use xlink:href="#m2de46ddd2e" x="368.57" y="587.105125" style="stroke: #000000; stroke-width: 0.8"/>
      </g>
     </g>
     <g id="text_56">
      <!-- −1.0 -->
      <g transform="translate(354.751562 604.126062) scale(0.14 -0.14)">
       <use xlink:href="#ArialMT-2212"/>
       <use xlink:href="#ArialMT-31" x="58.398438"/>
       <use xlink:href="#ArialMT-2e" x="114.013672"/>
       <use xlink:href="#ArialMT-30" x="141.796875"/>
      </g>
     </g>
    </g>
    <g id="xtick_27">
     <g id="line2d_52">
      <g>
       <use xlink:href="#m2de46ddd2e" x="401.595" y="587.105125" style="stroke: #000000; stroke-width: 0.8"/>
      </g>
     </g>
     <g id="text_57">
      <!-- −0.5 -->
      <g transform="translate(387.776563 604.126062) scale(0.14 -0.14)">
       <use xlink:href="#ArialMT-2212"/>
       <use xlink:href="#ArialMT-30" x="58.398438"/>
       <use xlink:href="#ArialMT-2e" x="114.013672"/>
       <use xlink:href="#ArialMT-35" x="141.796875"/>
      </g>
     </g>
    </g>
    <g id="xtick_28">
     <g id="line2d_53">
      <g>
       <use xlink:href="#m2de46ddd2e" x="434.62" y="587.105125" style="stroke: #000000; stroke-width: 0.8"/>
      </g>
     </g>
     <g id="text_58">
      <!-- 0.0 -->
      <g transform="translate(424.89 604.126062) scale(0.14 -0.14)">
       <use xlink:href="#ArialMT-30"/>
       <use xlink:href="#ArialMT-2e" x="55.615234"/>
       <use xlink:href="#ArialMT-30" x="83.398438"/>
      </g>
     </g>
    </g>
    <g id="xtick_29">
     <g id="line2d_54">
      <g>
       <use xlink:href="#m2de46ddd2e" x="467.645" y="587.105125" style="stroke: #000000; stroke-width: 0.8"/>
      </g>
     </g>
     <g id="text_59">
      <!-- 0.5 -->
      <g transform="translate(457.915 604.126062) scale(0.14 -0.14)">
       <use xlink:href="#ArialMT-30"/>
       <use xlink:href="#ArialMT-2e" x="55.615234"/>
       <use xlink:href="#ArialMT-35" x="83.398438"/>
      </g>
     </g>
    </g>
    <g id="xtick_30">
     <g id="line2d_55">
      <g>
       <use xlink:href="#m2de46ddd2e" x="500.67" y="587.105125" style="stroke: #000000; stroke-width: 0.8"/>
      </g>
     </g>
     <g id="text_60">
      <!-- 1.0 -->
      <g transform="translate(490.94 604.126062) scale(0.14 -0.14)">
       <use xlink:href="#ArialMT-31"/>
       <use xlink:href="#ArialMT-2e" x="55.615234"/>
       <use xlink:href="#ArialMT-30" x="83.398438"/>
      </g>
     </g>
    </g>
    <g id="text_61">
     <!-- Speed in preferred direction -->
     <g transform="translate(348.241094 621.100125) scale(0.14 -0.14)">
      <use xlink:href="#ArialMT-53"/>
      <use xlink:href="#ArialMT-70" x="66.699219"/>
      <use xlink:href="#ArialMT-65" x="122.314453"/>
      <use xlink:href="#ArialMT-65" x="177.929688"/>
      <use xlink:href="#ArialMT-64" x="233.544922"/>
      <use xlink:href="#ArialMT-20" x="289.160156"/>
      <use xlink:href="#ArialMT-69" x="316.943359"/>
      <use xlink:href="#ArialMT-6e" x="339.160156"/>
      <use xlink:href="#ArialMT-20" x="394.775391"/>
      <use xlink:href="#ArialMT-70" x="422.558594"/>
      <use xlink:href="#ArialMT-72" x="478.173828"/>
      <use xlink:href="#ArialMT-65" x="511.474609"/>
      <use xlink:href="#ArialMT-66" x="567.089844"/>
      <use xlink:href="#ArialMT-65" x="594.873047"/>
      <use xlink:href="#ArialMT-72" x="650.488281"/>
      <use xlink:href="#ArialMT-72" x="683.789062"/>
      <use xlink:href="#ArialMT-65" x="717.089844"/>
      <use xlink:href="#ArialMT-64" x="772.705078"/>
      <use xlink:href="#ArialMT-20" x="828.320312"/>
      <use xlink:href="#ArialMT-64" x="856.103516"/>
      <use xlink:href="#ArialMT-69" x="911.71875"/>
      <use xlink:href="#ArialMT-72" x="933.935547"/>
      <use xlink:href="#ArialMT-65" x="967.236328"/>
      <use xlink:href="#ArialMT-63" x="1022.851562"/>
      <use xlink:href="#ArialMT-74" x="1072.851562"/>
      <use xlink:href="#ArialMT-69" x="1100.634766"/>
      <use xlink:href="#ArialMT-6f" x="1122.851562"/>
      <use xlink:href="#ArialMT-6e" x="1178.466797"/>
     </g>
    </g>
   </g>
   <g id="matplotlib.axis_12">
    <g id="ytick_16">
     <g id="line2d_56">
      <g>
       <use xlink:href="#m3be1e765d0" x="368.57" y="580.743307" style="stroke: #000000; stroke-width: 0.8"/>
      </g>
     </g>
     <g id="text_62">
      <!-- 0.0 -->
      <g transform="translate(342.11 585.753776) scale(0.14 -0.14)">
       <use xlink:href="#ArialMT-30"/>
       <use xlink:href="#ArialMT-2e" x="55.615234"/>
       <use xlink:href="#ArialMT-30" x="83.398438"/>
      </g>
     </g>
    </g>
    <g id="ytick_17">
     <g id="line2d_57">
      <g>
       <use xlink:href="#m3be1e765d0" x="368.57" y="517.125125" style="stroke: #000000; stroke-width: 0.8"/>
      </g>
     </g>
     <g id="text_63">
      <!-- 0.5 -->
      <g transform="translate(342.11 522.135594) scale(0.14 -0.14)">
       <use xlink:href="#ArialMT-30"/>
       <use xlink:href="#ArialMT-2e" x="55.615234"/>
       <use xlink:href="#ArialMT-35" x="83.398438"/>
      </g>
     </g>
    </g>
    <g id="ytick_18">
     <g id="line2d_58">
      <g>
       <use xlink:href="#m3be1e765d0" x="368.57" y="453.506943" style="stroke: #000000; stroke-width: 0.8"/>
      </g>
     </g>
     <g id="text_64">
      <!-- 1.0 -->
      <g transform="translate(342.11 458.517412) scale(0.14 -0.14)">
       <use xlink:href="#ArialMT-31"/>
       <use xlink:href="#ArialMT-2e" x="55.615234"/>
       <use xlink:href="#ArialMT-30" x="83.398438"/>
      </g>
     </g>
    </g>
    <g id="text_65">
     <!-- Output firing rate -->
     <g transform="translate(335.163437 569.258719) rotate(-90) scale(0.14 -0.14)">
      <use xlink:href="#ArialMT-4f"/>
      <use xlink:href="#ArialMT-75" x="77.783203"/>
      <use xlink:href="#ArialMT-74" x="133.398438"/>
      <use xlink:href="#ArialMT-70" x="161.181641"/>
      <use xlink:href="#ArialMT-75" x="216.796875"/>
      <use xlink:href="#ArialMT-74" x="272.412109"/>
      <use xlink:href="#ArialMT-20" x="300.195312"/>
      <use xlink:href="#ArialMT-66" x="327.978516"/>
      <use xlink:href="#ArialMT-69" x="355.761719"/>
      <use xlink:href="#ArialMT-72" x="377.978516"/>
      <use xlink:href="#ArialMT-69" x="411.279297"/>
      <use xlink:href="#ArialMT-6e" x="433.496094"/>
      <use xlink:href="#ArialMT-67" x="489.111328"/>
      <use xlink:href="#ArialMT-20" x="544.726562"/>
      <use xlink:href="#ArialMT-72" x="572.509766"/>
      <use xlink:href="#ArialMT-61" x="605.810547"/>
      <use xlink:href="#ArialMT-74" x="661.425781"/>
      <use xlink:href="#ArialMT-65" x="689.208984"/>
     </g>
    </g>
   </g>
   <g id="line2d_59">
    <path d="M 368.57 580.743307 
L 369.904343 580.743307 
L 371.238687 580.743307 
L 372.57303 580.743307 
L 373.907374 580.743307 
L 375.241717 580.743307 
L 376.576061 580.743307 
L 377.910404 580.743307 
L 379.244747 580.743307 
L 380.579091 580.743307 
L 381.913434 580.743307 
L 383.247778 580.743307 
L 384.582121 580.743307 
L 385.916465 580.743307 
L 387.250808 580.743307 
L 388.585152 580.743307 
L 389.919495 579.232435 
L 391.253838 580.743307 
L 392.588182 580.743307 
L 393.922525 580.743307 
L 395.256869 580.743307 
L 396.591212 580.743307 
L 397.925556 580.743307 
L 399.259899 529.280008 
L 400.594242 580.743307 
L 401.928586 580.743307 
L 403.262929 580.743307 
L 404.597273 580.743307 
L 405.931616 580.743307 
L 407.26596 580.743307 
L 408.600303 580.743307 
L 409.934646 580.743307 
L 411.26899 580.743307 
L 412.603333 580.743307 
L 413.937677 569.89719 
L 415.27202 531.864183 
L 416.606364 580.743307 
L 417.940707 546.950874 
L 419.275051 580.743307 
L 420.609394 580.743307 
L 421.943737 580.743307 
L 423.278081 580.743307 
L 424.612424 580.743307 
L 425.946768 580.743307 
L 427.281111 580.743307 
L 428.615455 562.401265 
L 429.949798 580.743307 
L 431.284141 564.289893 
L 432.618485 580.668578 
L 433.952828 553.961656 
L 435.287172 580.743307 
L 436.621515 507.816693 
L 437.955859 580.743307 
L 439.290202 551.627737 
L 440.624545 533.690697 
L 441.958889 580.743307 
L 443.293232 460.662527 
L 444.627576 495.730358 
L 445.961919 580.743307 
L 447.296263 541.788178 
L 448.630606 533.595296 
L 449.964949 488.892247 
L 451.299293 580.743307 
L 452.633636 508.860805 
L 453.96798 521.006877 
L 455.302323 507.055772 
L 456.636667 460.788528 
L 457.97101 549.206599 
L 459.305354 546.627258 
L 460.639697 580.743307 
L 461.97404 538.754557 
L 463.308384 466.584591 
L 464.642727 453.506943 
L 465.977071 553.976236 
L 467.311414 580.743307 
L 468.645758 580.743307 
L 469.980101 549.721359 
L 471.314444 490.850283 
L 472.648788 467.113431 
L 473.983131 490.235701 
L 475.317475 540.539386 
L 476.651818 453.506943 
L 477.986162 453.506943 
L 479.320505 538.451748 
L 480.654848 470.328784 
L 481.989192 500.917868 
L 483.323535 453.506943 
L 484.657879 453.506943 
L 485.992222 498.320099 
L 487.326566 453.506943 
L 488.660909 453.506943 
L 489.995253 453.506943 
L 491.329596 453.506943 
L 492.663939 527.210053 
L 493.998283 453.506943 
L 495.332626 453.506943 
L 496.66697 453.506943 
L 498.001313 456.1915 
L 499.335657 478.709213 
L 500.67 550.620309 
" clip-path="url(#pf1c47caa4d)" style="fill: none; stroke: #654718; stroke-width: 1.5; stroke-linecap: square"/>
   </g>
   <g id="line2d_60">
    <path d="M 434.62 587.105125 
L 434.62 447.145125 
" clip-path="url(#pf1c47caa4d)" style="fill: none; stroke-dasharray: 5.55,2.4; stroke-dashoffset: 0; stroke: #808080; stroke-width: 1.5"/>
   </g>
   <g id="patch_28">
    <path d="M 368.57 587.105125 
L 368.57 447.145125 
" style="fill: none; stroke: #000000; stroke-width: 0.8; stroke-linejoin: miter; stroke-linecap: square"/>
   </g>
   <g id="patch_29">
    <path d="M 500.67 587.105125 
L 500.67 447.145125 
" style="fill: none; stroke: #000000; stroke-width: 0.8; stroke-linejoin: miter; stroke-linecap: square"/>
   </g>
   <g id="patch_30">
    <path d="M 368.57 587.105125 
L 500.67 587.105125 
" style="fill: none; stroke: #000000; stroke-width: 0.8; stroke-linejoin: miter; stroke-linecap: square"/>
   </g>
   <g id="patch_31">
    <path d="M 368.57 447.145125 
L 500.67 447.145125 
" style="fill: none; stroke: #000000; stroke-width: 0.8; stroke-linejoin: miter; stroke-linecap: square"/>
   </g>
   <g id="text_66">
    <!-- TN2 -->
    <g transform="translate(418.751875 441.145125) scale(0.168 -0.168)">
     <use xlink:href="#ArialMT-54"/>
     <use xlink:href="#ArialMT-4e" x="61.083984"/>
     <use xlink:href="#ArialMT-32" x="133.300781"/>
    </g>
   </g>
  </g>
  <g id="axes_7">
   <g id="text_67">
    <!-- Noise: $\sigma$=0 -->
    <g transform="translate(7.2 105.193125) scale(0.16 -0.16)">
     <defs>
      <path id="ArialMT-73" d="M 197 991 
L 753 1078 
Q 800 744 1014 566 
Q 1228 388 1613 388 
Q 2000 388 2187 545 
Q 2375 703 2375 916 
Q 2375 1106 2209 1216 
Q 2094 1291 1634 1406 
Q 1016 1563 777 1677 
Q 538 1791 414 1992 
Q 291 2194 291 2438 
Q 291 2659 392 2848 
Q 494 3038 669 3163 
Q 800 3259 1026 3326 
Q 1253 3394 1513 3394 
Q 1903 3394 2198 3281 
Q 2494 3169 2634 2976 
Q 2775 2784 2828 2463 
L 2278 2388 
Q 2241 2644 2061 2787 
Q 1881 2931 1553 2931 
Q 1166 2931 1000 2803 
Q 834 2675 834 2503 
Q 834 2394 903 2306 
Q 972 2216 1119 2156 
Q 1203 2125 1616 2013 
Q 2213 1853 2448 1751 
Q 2684 1650 2818 1456 
Q 2953 1263 2953 975 
Q 2953 694 2789 445 
Q 2625 197 2315 61 
Q 2006 -75 1616 -75 
Q 969 -75 630 194 
Q 291 463 197 991 
z
" transform="scale(0.015625)"/>
      <path id="ArialMT-3a" d="M 578 2678 
L 578 3319 
L 1219 3319 
L 1219 2678 
L 578 2678 
z
M 578 0 
L 578 641 
L 1219 641 
L 1219 0 
L 578 0 
z
" transform="scale(0.015625)"/>
      <path id="DejaVuSans-Oblique-3c3" d="M 2219 3044 
Q 1744 3044 1422 2700 
Q 1081 2341 969 1747 
Q 844 1119 1044 756 
Q 1241 397 1706 397 
Q 2166 397 2503 759 
Q 2844 1122 2966 1747 
Q 3075 2319 2881 2700 
Q 2700 3044 2219 3044 
z
M 2309 3503 
L 4219 3500 
L 4106 2925 
L 3463 2925 
Q 3706 2438 3575 1747 
Q 3406 888 2884 400 
Q 2359 -91 1609 -91 
Q 856 -91 525 400 
Q 194 888 363 1747 
Q 528 2609 1050 3097 
Q 1484 3503 2309 3503 
z
" transform="scale(0.015625)"/>
      <path id="ArialMT-3d" d="M 3381 2694 
L 356 2694 
L 356 3219 
L 3381 3219 
L 3381 2694 
z
M 3381 1303 
L 356 1303 
L 356 1828 
L 3381 1828 
L 3381 1303 
z
" transform="scale(0.015625)"/>
     </defs>
     <use xlink:href="#ArialMT-4e" transform="translate(0 0.125)"/>
     <use xlink:href="#ArialMT-6f" transform="translate(72.216797 0.125)"/>
     <use xlink:href="#ArialMT-69" transform="translate(127.832031 0.125)"/>
     <use xlink:href="#ArialMT-73" transform="translate(150.048828 0.125)"/>
     <use xlink:href="#ArialMT-65" transform="translate(200.048828 0.125)"/>
     <use xlink:href="#ArialMT-3a" transform="translate(255.664062 0.125)"/>
     <use xlink:href="#ArialMT-20" transform="translate(283.447266 0.125)"/>
     <use xlink:href="#DejaVuSans-Oblique-3c3" transform="translate(311.230469 0.125)"/>
     <use xlink:href="#ArialMT-3d" transform="translate(374.609375 0.125)"/>
     <use xlink:href="#ArialMT-30" transform="translate(433.007812 0.125)"/>
    </g>
   </g>
   <g id="text_68">
    <!-- Noise: $\sigma$=0.1 -->
    <g transform="translate(7.2 315.145125) scale(0.16 -0.16)">
     <use xlink:href="#ArialMT-4e" transform="translate(0 0.125)"/>
     <use xlink:href="#ArialMT-6f" transform="translate(72.216797 0.125)"/>
     <use xlink:href="#ArialMT-69" transform="translate(127.832031 0.125)"/>
     <use xlink:href="#ArialMT-73" transform="translate(150.048828 0.125)"/>
     <use xlink:href="#ArialMT-65" transform="translate(200.048828 0.125)"/>
     <use xlink:href="#ArialMT-3a" transform="translate(255.664062 0.125)"/>
     <use xlink:href="#ArialMT-20" transform="translate(283.447266 0.125)"/>
     <use xlink:href="#DejaVuSans-Oblique-3c3" transform="translate(311.230469 0.125)"/>
     <use xlink:href="#ArialMT-3d" transform="translate(374.609375 0.125)"/>
     <use xlink:href="#ArialMT-30" transform="translate(433.007812 0.125)"/>
     <use xlink:href="#ArialMT-2e" transform="translate(488.623047 0.125)"/>
     <use xlink:href="#ArialMT-31" transform="translate(516.40625 0.125)"/>
    </g>
   </g>
   <g id="text_69">
    <!-- Noise: $\sigma$=0.4 -->
    <g transform="translate(7.2 525.097125) scale(0.16 -0.16)">
     <defs>
      <path id="ArialMT-34" d="M 2069 0 
L 2069 1097 
L 81 1097 
L 81 1613 
L 2172 4581 
L 2631 4581 
L 2631 1613 
L 3250 1613 
L 3250 1097 
L 2631 1097 
L 2631 0 
L 2069 0 
z
M 2069 1613 
L 2069 3678 
L 634 1613 
L 2069 1613 
z
" transform="scale(0.015625)"/>
     </defs>
     <use xlink:href="#ArialMT-4e" transform="translate(0 0.125)"/>
     <use xlink:href="#ArialMT-6f" transform="translate(72.216797 0.125)"/>
     <use xlink:href="#ArialMT-69" transform="translate(127.832031 0.125)"/>
     <use xlink:href="#ArialMT-73" transform="translate(150.048828 0.125)"/>
     <use xlink:href="#ArialMT-65" transform="translate(200.048828 0.125)"/>
     <use xlink:href="#ArialMT-3a" transform="translate(255.664062 0.125)"/>
     <use xlink:href="#ArialMT-20" transform="translate(283.447266 0.125)"/>
     <use xlink:href="#DejaVuSans-Oblique-3c3" transform="translate(311.230469 0.125)"/>
     <use xlink:href="#ArialMT-3d" transform="translate(374.609375 0.125)"/>
     <use xlink:href="#ArialMT-30" transform="translate(433.007812 0.125)"/>
     <use xlink:href="#ArialMT-2e" transform="translate(488.623047 0.125)"/>
     <use xlink:href="#ArialMT-34" transform="translate(516.40625 0.125)"/>
    </g>
   </g>
  </g>
 </g>
 <defs>
  <clipPath id="p87a6b3a9ee">
   <rect x="160.13" y="25.225125" width="132.1" height="139.96"/>
  </clipPath>
  <clipPath id="pf7b3232429">
   <rect x="368.57" y="25.225125" width="132.1" height="139.96"/>
  </clipPath>
  <clipPath id="p56a321c43c">
   <rect x="160.13" y="236.185125" width="132.1" height="139.96"/>
  </clipPath>
  <clipPath id="pb5f173cfdc">
   <rect x="368.57" y="236.185125" width="132.1" height="139.96"/>
  </clipPath>
  <clipPath id="paceb08e9b1">
   <rect x="160.13" y="447.145125" width="132.1" height="139.96"/>
  </clipPath>
  <clipPath id="pf1c47caa4d">
   <rect x="368.57" y="447.145125" width="132.1" height="139.96"/>
  </clipPath>
 </defs>
</svg>
